<mxfile host="app.diagrams.net" modified="2023-02-26T16:24:08.136Z" agent="5.0 (Windows NT 10.0; Win64; x64) AppleWebKit/537.36 (KHTML, like Gecko) Chrome/110.0.0.0 Safari/537.36 Edg/110.0.1587.56" etag="O-9sy1CCuM-oVJfxLN3G" version="20.8.23" type="github">
  <diagram id="tLof7JNv3JomnSrm2KmQ" name="Page-1">
    <mxGraphModel dx="2712" dy="1327" grid="0" gridSize="10" guides="1" tooltips="1" connect="1" arrows="1" fold="1" page="0" pageScale="1" pageWidth="850" pageHeight="1100" math="0" shadow="0">
      <root>
        <mxCell id="0" />
        <mxCell id="1" parent="0" />
        <mxCell id="BgcQaN8wiSriz7WGM6qO-1" value="" style="shape=image;verticalLabelPosition=bottom;labelBackgroundColor=default;verticalAlign=top;aspect=fixed;imageAspect=0;image=data:image/png,iVBORw0KGgoAAAANSUhEUgAAAcwAAAGHCAYAAAA9RGIpAAAAAXNSR0IArs4c6QAAAARnQU1BAACxjwv8YQUAAAAJcEhZcwAADsMAAA7DAcdvqGQAAD7rSURBVHhe7d0NeBPXgTf6vxuyMQTymoIbqWu2iGvSyIFd5IQUqUvzIEoSTEmKHIdruUmbmHSbmIRt7Cb3xYb3vUZOnrQ2uSR2tklw8ja5lp9CbJoPm9xQRHfpI5HS2rR8OAEuItfeSl1M7ALBzkJ27szoSJZkSQwftsbm/8sz0TlnZGksWfx1Zs6cyZBkICIiopS+JG6JiIgoBQYmERGRBgxMIiIiDRiYREREGjAwiYiINGBgEhERacDAJCIi0oCBSUREpAEDk4iISAMGJhERkQYMTCIiIg0YmERERBowMImIiDRgYBIREWnAwCQiItKAgUlERKQBA5OIiEgDBiYREZEGDEwiIiINGJhEREQaMDCJiIg0YGASERFpwMAkIiLSgIFJRESkAQOTiIhIAwYmERGRBgxMIiIiDRiYREREGjAwiYiINGBgEhERacDAJCIi0oCBSUREpAEDk4iISAMGJhERkQYMTCIiIg0YmERERBowMImIiDRgYBIREWnAwCQiItKAgUlERKQBA5OIiEgDBiYREZEGDEwiIiINGJhEREQaMDCJiIg0yJBkokyUVE9PD86ePStq6TVt2jScPHlS1PRBT9vEbUmOfzupTZo0CTk5OaJG8RiYpMnhw4dx0003iVp6Kf+4KP/I6Imetonbkhz/dlLT0+dcj7hLloiISAMGJhERkQYMTCIiIg0YmLrgQ01GBjLUpUauDfFtyEBhc1DUiIgoXRiYumCCqUi+KWpCQKqENdSosq4LoHCbkaFJRJRmDExd8Mv/yWG5xQmDaBligHOLF/nbPGBkEhGlDwNTJ0wr7AnCMkzugaqhSkRE6cLA1AWTvKSKQzkst4oiERGlBQNTFwywoxYZG6KH+4QpA4JsqKq2xxzbJCKi0cXA1AlDcQVc621ipGz0IoclXPCuY1wSEaUTA1M3rKiUJHirRTUswchZIiIafQxMnbGuk6BM7xtZEo6cJSKi0cbA1AUfahIevxzi2xA7oQEREY0uBqZeJDx+ObTY1ov7EV3Vgmh9eBYyjCVwHw+1DO6pwWKjEYuf9WEw1KRbysxdsZ9tIzbuEytJ9xiYRDR2BL1oed0v37rR4gtN5dG5owqeYBCetR50qi36pR5yOR1AxyvhQy3y73BeLdAYwMDUi2pv7LHLuCXgVs7VJLrKGUzIEwf1zTNCBVOuQ73FCtMlHu8Pwn1/qMdXs0c0jaTJBlgeqUDFPFGnMYOBqQtWVF7gtBFDsZMjZYlggmWFcutAXo7aAMPsfDUoDfPN6hQgY4MRxtmiSGMGA1MXoq5Wcr87NGdsjxuF8W1EV70sOWgscjrmwzxTNOWYYZdv7LnGUJ1ohDAwdcEKu3L+pXLOpXoaiRygM0rQGloJbC2B8QKjaImuFuY5cjwuMct9NEHdTWtB/uxL2yFLpBUDUxd88OyPulrJHg+q1HYXvOoxTC9c6z08rYRIlpltRIEl+nilEeYltqEeZ0Q/fC+uxrK5RnVPjXHuMjz96ntoeLgQ7h5lfXjPjhElYq7mKqvYqyMvyiX14ke1lmwN7+sZOu45fF2s/qPtaHhsGfKMyv2MyLtnNRp2+TEg1kfsqYl5PHWJ3rv0+wYsvnNx1NKg+0FO445EOuCVXNVyNAreakjKW+NwB0SL0uaS75U+H3/8sSilX29vryjph562idui6JPaHjVIWFAmbfYdk/r6+qRjvs1S6W2hz5bLF7rXgNze19cmVcptSntlu1IXy4C4z5EmyWkY/plUnWiTypOtkx3bUiqZlMeObEdAOtReKzlyQz+jLGvfH3qN+jqbpLJ5oXZz9c7INkQE5G1dAMnwwGbpUJ9ou4L09DnXI/Yw9SLcg+xxo1Y959KBwoXh79ByD5TnYRJpd7QFdf8ShOOJKpQuMCErKwumBaV4rmUb5ICLyJTbs7KmYqKoT5yq1MWSGWrLzLVj2cJQeZjpBSh8RJTjDP6+BiX3N8JvcKKpuV5shwHmpeVo2dEkf8KHy5rnhGt9qVru8vnRJ7YhwmCGaUopGjaWwpwl2mjUMDB1QTmGWQWbsgsmfOyyugJOdRQgr1ZCdNF6g/DIN97ODvSHWkKuX4gy+bN0RV0rbmP0o/2lKvVLsL3aBWf87uKZdhQWiXKcrKVOVCqhvr0BrfGTGuxrReNtThRMF3UaVQxMnbCuC6Ap8gEKX51EhKXSxGOYRNrlWlAmh07wZ8tgtq9Cw7ZOBMU0QKZHdqJyQag8YoIetLyuFAywWy7yZJdMOUyftMiFTtRu8UTNXjQIz5YWFN5vR3zHk0YHA1M3DHBuCU9UEL46SegKJrFtRHRB0wvgeqMSdiU0dzVitSMfxolG2H74EjyjcY7W8S641YINpqhdwFpZVpShQL4NPutGe2+oDYNetO8rhYMTHqQNA1MX5J4kTxshuqKylriws+sY2l6Qw2eOklpBHG5dj8VGG2r26HzW2dxClD6kFBrR+K5fbQpua0D/I4VjaHKG8YeBqRepJl9nmBJdmiwTCh6vR9v+AAb8O1F979fkRh+qNraO7GQgOSYxqKcfA5eUzVkoeKBSPXWm/YVWdJ7vRNMLZjiXcqRPOjEw9SLFXLKB3Fr1nDAi0sa3wYiqXbFJlTnTjsca/xdqlV2aW/0I9du0yETWxQ6yybGiYKlS8MC3P2bYkWaZiwpD883uq0Xjk41ocRTCzoOXacXA1IXUc8kaihtQuK2Rg36INAuiZm0dfGdENeIGGJV9mo9aYA41yDKRKY4L9p1O1B0U0/HJ/D0B9TbijA+edlGOYULho2VqD7Gxunb4dpwJIHDBHLXA8YR6JBMNL/pRuiK0DZQ+DEwiGneUK5gYehvhsBSiblsn/P396A924df/19Mo9xVgsxxEQzs3zbAsDY3MqXu+Dp7j8n2V+0dlp2VRiTrorvOpMlRt60KwP4iu7Q1Ytf4QsuaH7uPd7oE/6lJdWctr0Vot/9S+GjjuqUDjHr/6uP49jaj4oQueE6H77fjN3thTX6KYlpdCPSvzoVIU5qpNlE4S6UDsTD/xAm6HhKImafg8IqOHM/2kxtl1EkvXtiifmbJ3+qS+/U1S+XKzJMehBINZ+vZDz0k7E32Q/G1D94NJshaVSfUfBKToiXaOvVMuFcwxqLPwGOYUSOXuQ5Iy2U54Zq7Q4pCaukP3Dwt46qWypabQ+twCqeyFnVLgXEBqKor+uaHZh2INSG2PG6RKT/yUPyODM/2klqH8T36zKK2izrdMwuEOoKU49C04HQ4fPoybbrpJ1NLr5MmTmDZtmqjpg562iduS3Jj72xn0oMrpR2lr6aiMjtXT51yPuEt2LKj2pjUsiSg9gtsa0f8QTyXRC/YwdUE5DxMXvIh0OinfgvWi4/+T8Ne/nhI1fej7/G8w9br/FLX04rYkp7ftUcy76SvyNn0ul/aj8bsrUXf9avzylccwd/DXePrJIB77xfegnAwzWvTWA9cTBiZpoqddNW/95hj2B64RNX2Ycs1nOP3F9aKWXtyW5PS2PYrl8ybgNvPfhi4aL+aStlY3odTvwcT1m4fPQzuCuEs2Ne6S1YULz/Tj21DD00qIxrMcByp+WqDufvVv8QBP1Y9qWNKFMTD1ItVMP/Ji4+W9iMa5TFh/0oZjymQl+zej9GbOUqA3DEwiIiINGJh6U9SEgPwNUzm0HL14q8V6IiJKCwamLkRdxmsjUCZ2w9bsEatl1nW8vBcRUToxMPUmx4kWEZ72HeFjmIVw94j1RESUFgxMXQnCfX+igT6tKHnSPbKXIyIiopQYmLqgTI2nhKQRJVtFk0yZDi9yHHOLU73yARHRZRvsRJ3diAxrTeRKKv6tq7D464uxaqv2C59dbThxgS4MzSXr8kmoXBBqjaach4k0HsfkxAWpcbKAxC5pWz59G1tXr0GXqMabfK8bT6y0YYKoxzvz4Rps3PS2qMV7Ag+7n0SW90fYWP++aEvkbjjqf445Xw7VzqS6/zc24ck192KyqOJsN47sfQMfef8A//6O0JVIbsyHee5SmL/1XdycC3y0aT665u9FkS0by+f14fD/sMR8WU4k6XzS5/vRtaMFjVvd8O72wHc01Gxa4ECBoxAlxQ5YextgswyiThL/hvy+Bsb5Vepeq9C/OcreLfGFXRl4yC/oCbGHqTNV1qFdstELz8Okq8aX70XRmx/jiaoKzB66BlfEmbd3ofucqAzzOU78vwnCMnc1ijf9Cc/+8p+QI1cn236OtS+3wXFXfmh9RD4WPrUba98cCkuFev9NbShauSgSjJMXVuNh+THXRoXl4Mf1eLNiIZpffhVHvrgVC6t+jSc3/wlPra2Ceeof4Fk/H888VoAPPhQ/oMqGc8sA+vxebH48/iuxFZXtx9B3WkoYlv5tFVg8YyryClahbncWllV7cayvD319x9DylB2D28thm2GCcWlF7MQnOWbY1YIDJvVhDTDNVRuAm00MyyQYmHoh/6FHdr8mWHhaCV1VrrkOWXmrscRhkyuPwPqdUHPIq/hof5K5hM/9Acd/ewssd9wtGgSLHbOzb4jplU6YcgvmfDMUG0Pk+82bgQkJdmBMyL4F5ns3YekdSu1u3LnyQeREP+Ynr8L9f9bCr3Qpsx7BiopKWPJyMXnSDcjMzsecFT/HD/9HBXL6T2DYda2RiayZVpQ+USqCLGwZli01ISvSfQ0bhG+DDbMcdfAo3cR55WjztaCy2ApTVhayskywrCjD5g+8aHoACKoDIDrgDw8eNJiQr1402wyTmE3IdLNTvXXO5VTvyTAwdUH+FnmBidd5WgldjTLlsAH+G3LnrR7a5Snbu9crR8Zwg/vfx+4ZD2JOuLd0xd0AY54SxnOQFdUDBU7hyM4aRAazf30OshNM1JP59UdQsDK+Vxslc2LUha2T8zeXwrE+3Gc0oKy6CgXTRTXaBBOcLzWhfFiX0QSz8g/KA/mRK6EYTHmYLv+XF+pyUgIMTCLSvWtn22CJTpJ/3QX/aVGOOAX/3jcw22ZDtmgZCYl6n0A3gr8XRcXHB3AiUaLjOhjuqoBVSyom0+NGhTNq1LxBDs8lKR5wsh0VGx2iEpYFs9zrNpijdr/mmOUv5XfBkivqNAwDk4j071obZi+JjsFf4sD+E6IsfLoLB/51JeblzxANo2vCfxMFRf+r2FZfD/+nymW74mTaMLfgFnT9pVs0XJzO5lr1iiYRK2zIv8C0s4YVZaiM6zhONZhROCdq96vBhP9tXg6MlxPm4xwDk4jGhJz8H8YMRun6rSc0AlXo3/8rdN2xCKYpomFU5cIwL7Zfe6ajFm+u/jpeWP80dnu96D09FJ6G77Rh/YoUu2aT6oTH3SnKIYYZxgvvxs20wxVogVMZ8SRkLa9H/fLon7Tg0V8+LP+fkmFgEtHY8DW5ZxZ9JeV9b8P/F1HGQXS9vwtW2yKk5xof18Fkr8KcBMnVf/SX2FXvxEv/9HVsfHoNdu89iMEvxMqL1R+Af58oC7aZRlGikcbAJKIx4haYFt4iygov9v7hYKj4iRf7/7oauTdfF6qnQ/a9uOfpaphvFPUEznS/jV3PL8NLz9bgSNweZU3O9CMgijT6GJhENGYYbn0wMqpTEdztVQe/9HS8gjNL7DBdG2pPlwlfexBFtX/CY09VY35+bszI3mhnDr2K5hdfvTLTXZ4fEAUaaQxMIho7brRhjnr+oPDJr+D/2IsjO74Ca/6lHBMcAdfcgOnzHsTSil/jyV/sxQ9//BystgThefQVHBGz8miWY0Z+3OCd1uNXJHZJAwYmEY0hM2D6xiJRVhyEb9Ma9dxLc/TxTa2mZMf0WDWbmx0bgB/XonrT28MnJLg2G4b5K7Fk9a/x2HPPxR3jPIHgf1zsflkzrA+IYtjuQ+Dsr6ODgalTH3zwAa699lr1loiGZM39rhwbQ870n1DPvbyksyGmfAWx5/v/BwbOimJCn+PE8fflnu5XYgcXXSPXPnTBtz/BaSRC5oyVKHhopaiFXHPRUyJnwuZwxY5k3dEKj4aeqr95FUpeTTZDL2nBwNSpqqoqnD9/Xr0lurrFzQDwZRvM3xBl1d2YO/cSz72cdCtyvx19Osgb+Ohgkmn3FKe9+Oi32Zg/79YEo3FPwOd+ET0JJywIybwh+rkWwTTz4qdYyFxQBtej0ftl21H1iifhzEdhg3tqUOI8hDwLp727HAxMHVJ6lYcOHVLLyi17mXS16v/LH+T/70L3J6F6SDZybVE9tTu+i9yYaeouxg2YvTz2dJDO19ehsztBaJ49CN/LT6FrbhWs+cqUfQl8Uo/XnqlNMAuR4nP4//BLUQZyVlZgbvyI2vPiNqUsFPy0HbXLh0Iz+LMSLFvfjuCwnx9EcHsVlq2oh8ndhMrb0nPSzXjBwNQhpVf52WefqWXllr1MuuoMnkDvvnrs3qEc4zuIHY3r0Xm0G+fF+YuZNy+K7JaMPffycwz2H8SRPypBG+V3v8KBT05Efj6GcjpI1XOwhMOr/228+/TfqxMO7HjvVfjkZcfLDrywahn2TqnAgw/dm3T3b9aMXEw+Wo83n3bi3f/nfQRPnMLg2VPo/+R97H25GG++p/w+2Zi9shXOe2+JvUTZmSA6t7fEzuKDNrRt60Iw/uDoZAvKWzux86cOcQw2CM+GZTDOyMOyx6pQ97M61D21CovnmmB82AfLS140FbN3ebl4PUydUXqTDocjEpiK66+/Hq2trbjzzjtFy+jj9TBT4/UwE7ukbZEDp3p9rajEiVx78hS6Xv57bP3jajywqUKcTtKB3U6H3B9NJXQ9zKgJb4Z8cQq9+7ej88O3ETx2BP5uMSAn6lqWc3KT7EJVtnnjX/HAxkqYzh3FkY5f4ei+DnUEb686HVE2pufdCtO8pZj7j/ciJypxL/t6mL1daH+3Ea3NXnh2+MQAIBOsS+ywFTtQtqIAJo0HePX0OdcjBqbO3H777di7dy8mTZqkXtZLuRbm2bNnMX/+fPzud78T9xp9DMzUGJiJ6WlbFHrbHsXyeRNwm/lvRS29GJipcZesjmzatAn79u3DtGnT8Mwzz2BgYEC9VepKu7KeiIjSg4GpI2vWrMF9992H3t5etRxuU+pKe7iNiIhGHwNTZ9xutyjFStZORESjg4FJRESkAQOTiIhIAwYmERGRBgxMIiIiDXgepo4p52Dq5e05efKkKKWfp+scPvnzp6KmD2f/KxOTvpRqNs/Rw21JTm/bo7jr9hx8dco5UUs/5TQ2SoyBqWN6CkxOXJAaJwtIjBMXXBgnLhg7uEuWiIhIAwYmERGRBgxMIiIiDRiYREREGjAwiYiINGBgEhERacDAJCIi0oCBSUREpAEDk4iISAMGJhERkQYMTCIiIg0YmERERBowMImIiDRgYBIREWnAwCQiItKAgUlERKQBA1NnnE6nKMVK1k5ERKODgakjmzZtwltvvYXp06er5XCbUlfaw21ERDT6GJg6smbNGsybNw8nT55EZWUlJk6cqN4qdaVdWU9EROnBwNQZl8uF66+/Hp999hkGBgbUW6WutBMRUfowMHXmzjvvRF5enqiFKHWlnYiI0oeBqUPhXqaCvUsiIn1gYOpQdC+TvUsiIn1gYOqU0qucMGECe5dERDrBwNQppVd57tw59i6JiHSCgUlERKQBA5OIiEgDBiYREZEGDEwiIiINGJhEREQaMDCJiIg0YGASERFpwMAkIiLSIEOSiTJRUsolxvTC03UOn/z5U1HTh7P/lYlJXxoUtfTitiSnt+1R3HV7Dr465Zyopd+0adNEieIxMEmTw4cP46abbhK19HrrN8ewP3CNqOnDlGs+w+kvQhPmpxu3JTm9bY9i+bwJuM38t6KWXnr6nOsRd8kSERFpwMAkIiLSgIE5Rvg21MAnykRENPoYmGnnQ01GBjIusNjWi7sTEVFaMDDTzgRTkSgSEZFuMTD1YG4TApIEZcBysiXgNok7ExFROjAw084A5zqn/P/UDMVOWEWZiIhGHwNzjPA1uxEUZSIiGn0MTJ0JNhcmHvTj9MMv7kNERKOPgakrPjQ6W0U5TpEJPIpJRJQ+DEydMbkDoYE+3U1whcuSF665pgse5yQiopEz/gOztwue5gZUPVaIxXcuRp4xAxnGPLVc+FgVGpo96OoV9007K+woU3fB1vTYYdpmFLtkbaha7+HEBUREaTR+J18/0wX3+tUof96jYbCMAfYf16G+2gnzZNGkBz1uFM4ogbqTttoLaV36xsly8vXUOOF5Ypx8/cI4+frYMT57mGd8qFmShxJNYakIwvN8CfKW1MB3RjTpQY4TLeI8zHSGJRERjdMeZufzNuS/NBVlxXZYLBaYssSKZAaD6PJ50d7cgL7HOuD9sUWs0A/ltBJT8YXP1xwp7GGmxl5dYuxhXhh7mGPHOAzMTtRZGmDavhmOi02XYCtWLfWjrLMc6YlMZV5ZG6pELZYLXqkybZMXMDBTY0glxsC8MAbm2DEOd8kOYnCfAcZL6YoZjDDsk39eVEcf55UlItKrcRiYZlgebYTrWQ/8/f3awu/8IPqDXWh/1oXGRy3yI6TRCq84lSR6CcDrK+XUeEREaTQOAzML9odXo2/tYsyaOhUTo2bLSbpcOxFTjXlYtrYPqx+2y4+QLn74nbYE22iEzdrI00qIiNJoXI6SzbytEk3vlF1cj8xgR+UH7ai8LVM0pEOKXbLVdvYwiYjSaHyeViIzLa+HN+BFU3UprLmiMZFcK0qrm+Dt3AnXkvT1LSOSXeqLp5UQEaXV+J24IM5gf796nPJQYCDUMNWE/JlGZGWls0c5dnCUbGocmZoYR8leGEfJjh3jsIfZj65dHnhili4MZmXBcLMV9kX20DLPNGbD0rehhscziYhG2TgMzC602hdjsbyUbHCjq38ijGY5HMVaXVOmwhs24Gf4Ylsv7k9ERKNm3B7DxNJ6eD7YjLIVVpgNY6QnmeNERbUoExGRrozTwDSg8ielME8Qxy5TLumbpmA4HzxIdB6mFy5l8nVRD7h5ZUwiotE2TgOzEDZLqFc5GOyCd3sjKhxmTJ06NbKYHRVo3O5FV1BPgSnb7x8+YXyPHx1Rl/cyFDt5igkR0Sgbp4FpxFRx0DLrZisKisux2SMHZ3UoZizrdqLLsxnlxQWw3hx7dHMwrT1OK+xzS2CMP26pXOKryAT2K4mI0mf8HsMcJgvWh1bDgQKUPZhsNh8f6qbWpXUEqnWdssvVIWpCURMCW9J3pRIiIrqqAlOWY0I+bMhLMpFB/642tIhyOhmKWyLHK73KIKCtSq+Tp5IQEaXTOA3MKtjid2uqi3LprGTrMjDVXoNO8QijS7msl7INhXD3iCZB6XGqoUlERGl1dfUwdc2Bpu4WOHtqokI8FKAMTSKi9GNg6oTJ3QBnjlxYUAmpuwkO5bilJAeo0qasz+WQHyKidBq/gWkww77EflGLWS+japRjrXNNMYN8/Ef9okREROkwDidfV44HumA40obSVFcpSeRoI5bNDqJKqhzl8xyVbVaOr6bignfUt2sIJ19PjROeJ8bJ1y+Mk6+PHeM0MD2wX1K4XM7PXg79B+bJkydFKf08XefwyZ8/FTV9OPtfmZj0JX1MgsFtSU5v26O46/YcfHXKOVFLv2nTpokSxbtqLu+lb3JgbgAqU1zzMtjshj+NM/ywh5kae3WJsYd5Yexhjh0c9KML1pRhqeB0eERE6cXAJCIi0oCBSUREpAEDk4iISAMGJhERkQYMTCIiIg0YmERERBowMImIiDRgYBIREWnAwCQiItKAgUlERKQBA5OIiEgDBiYREZEGDEwiIiINGJhEREQaMDCJiIg0YGASERFpwMDUqQ8++ADXXnutektEROnHwNSpqqoqnD9/Xr0lIqL0Y2DqkNKrPHTokFpWbtnLJCJKPwamDim9ys8++0wtK7fsZRIRpR8DU2eie5dh7GUSEaUfA1Nnwr3LSZMmYeLEieote5lEROnHwNSRTZs2Yd++fZg2bRqeeeYZDAwMqLdKXWlX1hMRUXowMHVkzZo1uO+++9Db26uWw21KXWkPtxER0ehjYOqM2+0WpVjJ2omIaHQwMImIiDRgYBIREWnAwCQiItKAgUlERKQBA5OIiEgDBiYREZEGDEwiIiINGJhEREQaZEgyUSadycjIgF7enpMnT4pS+nm6zuGTP38qavpw9r8yMelLg6KWXtyW5PS2PYq7bs/BV6ecE7X0U6bipMQYmDqmp8A8fPgwbrrpJlFLr7d+cwz7A9eImj5MueYznP7ielFLL25LcnrbHsXyf5iA2/L+VtTSS0+fcz3iLlkiIiINGJhEREQaMDCJiIg0YGASEaVThrgl3WNgEhERacDAJCIi0oCBSUSUTjyxb8xgYBIRpROPYY4ZDEwiIiINGJhEREQaMDDpkgS3rcKsDCNKmv2hhjM+1NiNMNpr4DsTaiIiDXgMc8zgXLI6pt+5ZINofdCIwjflYlETAlucMOypQYa1Sl3r8kmoXKAWh/T70b6tAa3NXnh2+KDGbK4VjiWFKHywBA75/q33G9GyIoCWYgOCzYUwOlvVH70kRa148sZXsLH+fdGQyN1w1P8cc74cqp3x/ij5/b+xCU8u68bG9bWiIZUZyJl7C4y5i5D7zaWY/dUbRHvYCRzYNB+tH4pqMvLvsH5Fvqh0YLfTgV2iNiT2d1BwLtnkOJdsapxLNjX2MHXG6XSKUqxk7elhgMlsCBVvNsk1WY4JDrXBAZNYFdb/2xosNs/Csofr0HbehkrPIQT6+tC3ow6FRi+qrEZMNFpQvlX8QAwrKtuPYeCcpH55CLhDzxKhhIr7uLx8jKeqKmDKEu2yybafY+3LbXDcFQ6dsHwsfGo31r4ZGzTq/Te1oWjlIkwOty2sxsOb/oS1a+7F5NzVWP/aXvxw9YPIEetD7obzpYNiO47Lj7EJlhmn0LXtaTRX/D02umpwoPuUuK8iG3PWyNv77CbMzxVNUUzfb8Na5bEiYamQt1l97J9jvvo7ZmP2SjeeeC32dyCikcPA1JFN8j+0b731FqZPn66Ww21KXWkPt+mBaU6heuuYLdIxx4x8pWjIh3lmqEm1rw4FC6vgCcplQzma3qlF6SIzDFlZyJpphXNdCzp2u2ANBuV+63DWjQ1wLTUhc4JoSOo6ZOatxvLiu0U9ZMKUWzDnm3ZRC7Nj9rwZmJDggicTsm+B+d5NWHqHUrsbd66UwzH7BkSePjMbBtt3MVtUE5mQnQ/L99x4+FE5ZOX6mUOvovXpxWj1HMX50F1k8vZ+7V4sXeuGNSrkFf7j3VH3izUhEzjfL7/cRS+j6F4bsuQ6EY0OBqaOrFmzBvPmzVOvPVlZWYmJEyeqt0pdaVfW60XWDBMsct8y32wSLUaYl8g3S8xyKawf7a9UwCdqWJiPvHDXLUrWP5aj4RmrqEUxVML1qEVUtMla+DiWJOi1XZwbYMxTgncOsi6j95a1cAOWfztb1E7gwOZivPPhCVEXMm1YuOrBSI9W9a+voPMTUY7xOXp+/SI6v7EJDrn3ecHvEER0RTEwdcblcuH666/HZ599hoGBAfVWqSvtunKzRe6n2WGO7JsM7aa1WMQuWpUfndtEUbG7A4cSDgjKhOVxF8rjduXaq0thv+ge1C2wLF8pypcuUe/z4t2A2d/6flQYyqH5ixdx5LSoCpn5j2PpwnCwKjqw41dvY9hL9ckb+GDrV7D8f78XcZ1SIhoFDEydufPOO5GXlydqIUpdadeVzKkwLs2POV5pzLXDlhvucYZkRodgsA4lzhp4ehJc8X6yHSVPWtB6NDTq1lDcgp2PxD6WVpnzn4s7/pdGuTa5Jx6l/w38vqNbVMKyYXZUxO7m/dAF3/7PRUXRjQO/qsHEVdWw3CiaaHzgxAVjBgNTh8K9TIUue5cqC8rby2PCwFDUhPrl0X0fMyxLY7uNwXersHjGRMyyrkJNswddvUPhaflJB6R1CXbNjmkzkP0NURSOHDo4vPd443exaGV0yJ+Ab+sbkeO6Zz6sxQcnK7HIPkO0ENFoY2DqUHQvU5e9S80yYf9hHZxxu1oV/j2NqHIuRl72RBjnlqBmWyf6k410GdOykfV3ohi2+yj6RXHIdTDcVRE7AOhoDXZ55N7o6V3Y/YtuzP/Bg1G7u4lotDEwdUrpVU6YMEGnvcuLMNOJxu31cKQYiBM84EaVIx/mOyvQflw0Xo0ybbB+L3aU75G3avHu//0UuhdVwTrrOtFKROnAwNQppVd57ty5Mdy7HJI5rwwtXX041F6PsuXmpL2k4K46LCuuQ6eoX40m2+JG+fa/jc7ddiy8m6NiidKNgUmjY0IWzEvLUP/OIQQGAuho3Yzy4gThuacW7XtEeVw4hYE+UQxbmJtilOstMC+J7WXiGzbMmCLKRJQ2DEzd8KFmQ+SMxfHht1XIuN89fEKCTAMsK0pR6z6Erv2b445xBtHhTzSFwWWYko1LGm87Nzv2/MhL8lec+YsoCrPzbkn5uMNOafnqjCuwHUR0uRiYerLehsLmKxwW6TRhIrC1HLU7EpxGImTNKUXDS6WiFnLhWX0u0pSvYLoohvwHBs6KYkKf48Tx94Ebv4LLnkjn9EH07BdlRdaDuC3/Ike6cl8skS4wMHXE5A6gAWXIyCiEu0c0jnlB1D3lSnkFk6zs6C5mAeyWKzwWdNKtyI3MuKN4Ax8djJ7bNc5pLz76bTbmz7v1sgOzv+OXUcdkszHne49gNnevEo1JDEzdsMJZbFBP2JekBuDJjGG9Td+GmqFp5saSfTWwLamCp1fUYwzC806jKMuvwjMulKQYUTtwSaee3IDZy6swJ+rAYefr69AZMyG6cPYgfC8/ha65VbDmx19lJJlunIqbvUd14m14fhm+vsgMWP6pGffYLuE8yoHBpHPLEtHoYWDqkgHOLV7kO43qJb7Ci229WD3GmOaY1ct/LZ67GKtebEXn8X709/fDv68VDQ/bsfhnyhcDAwqe8aL9v1uS9OoG0R/sRPu7cZf8+t2v0Hm0G4PnRD2Z7HtxT9VzQ7Pk9L+Nd5/+e7yw/mnseO9V+ORlx8sOvLBqGfZOqcCDDyWbfu5zDH5yIO647EF07vw1+sPbcO4Ueve9iq3PrMGBfrkHPe8ROJ5rw/I7ci+4d/V8/0Ec+eMfRE34rbx9h+TfMfmebSIaBbwepm744G42qb1M34Zk4eiCV6qU+6Kj75Kuk6dcI3NFH3YeqYV9sEsOuya0b/fBs9uDLjVxDDAvssG+tBAlDzhhTbYntseNwhklSH11zOHXhUzoCznM9m9H54dvI3jsCPzdYjL0G/NhnrsU5m99F3Nyo3ffRjlaj2ot18OUH8v0ldkw5Ntgzr8bOdlazp9Mdr3LWIuqjyuDbFPi9TCT0+X1MOdNwG1mXg9zLGBg6oYPNRk2hC7BLFR7Y6aKCza74S+Wg0XUR5OePkhv/eYY9geuyOzoVwxDKjEG5oUxMMcO7pLVo6ImBOTvMfHzqhrSFJZERMTA1B2XTw7KLc6ks+EQEVF6MDB1RDmtpHKBqBARka4wMHUjdFoJERHpEwNTh5RRstGnk2SMtynziIjGII6S1ZUEI2Uj0ndKieLkyZOilH7ShOtx/M/62R6FYfpUBHvjZ1lPj3G7Lcn+pcoQtwrlPvH1KIZs/bw2YTd/LRufDySa+SI9pk2bJkoUj4GpI8HmQhidQFN3C5w5olEVhPt+I1pWBNCSpt22ehpuroS33j7Uetombkty/NtJjaeVpMZdsroRhGdbvtyLjA9LhTLzTwCFRz1xM8wQEdFoYWDqhh/+ufYUu1wNsOcq9yIionRgYOqIKTf1VRv9RxmXRETpwsDUEX/cZOvxy1idfH38G8T+13+AWRmzUPgvnXLt0gS3rZIfw4iSZvHF6IwPNXYjjPaalJdHI6LRwcAkumyd2PGT95Sd6mitbkeXaL04QXi3NcqPEIR7my90rPqAB1W7ggjuqoLngHonIkojBqaeKJOtK3PIJlkC7tS7bCldLFjys+/AJP9X+oJTrl0KA0xmMQL6ZlNoasQcExxqgwMmzmlBlHYMTN2wojJusvV4nHxdrzIx96H/hWPSMWwuuvQvNaY5heqtY7ZIxxwz8pWiIR/mmaEmIkofBqZu+FDDGX2ualkzTHLv1IB8czh0jTAvkW+WmOUSEaUbA1NP1tuGDfSJLAzT8e9mC+zyf+bIebih3bQWi9hFS0RpxcDUkxTHMAO5tShsHs/TFiizGUV/SSiEu0dp9qDu4cXIMypts2B7uA57w7PiyesaHlsm1hmR56yDr1esU8U/phE1vxer1GkIk60L64fvxdVYNjc0etk4dxlWv9iKhofFtsmU2ZmUddOnTw89zoOtoQE78dRtLYRtduj5ZlkLUdHcJT9DlMypMC7Njzleacy1w3aB042IaJTI/xjTmBCQmopcklfURtvHH38sSiNpQAq8Uy5Z1BlAHVLtKy6p9CebJa+/T+rze6X6BwzKNI4SblsrtbXXqut2dgWkvkCH1PS4NbRu6WbpmHi0sD6PS7KGZhWVXD7RKAzsr5cKEq7rk9oelZ9vQZm02XdM6uvrk475NktlC4bfd+BEh/TcvaF2FDXJ71SsAZ9LshsgGRaVS02d8vb2BaSOV5ySnIuS9ZkO+be+snp7e0Up/fS0LQq9bY9CT9s0Op/zsYuBOWZcDYGp8EouEWCON+Ki70SLVCrWWau9sUEzsFOqlEMJsEi1naItYugx4wNTkuO1aUWCdUc2S3a5zeGOi7/TO6Vy+XniH+fQK99RH2NYYHa3SE5luwzl0s7Tok2x16UGJiC3X+HEZGAmx8BMjYGZGnfJ6kbqQT/B5jKUqCcuXC0cKFwU99tOt8CqDIKRLVtiRWaoGJKZh7yFSqETgxc1c8BEYIIoRusNwiPfeDs7YnebTrajrFqOUk0G4XmpDO6gHONPlsA+WTTLgkc6xK5bP4Ixu5GJSK8YmHqSYtCP0dkKxwr7VT74YyImZoniSMu1oEx+sYM/WwazfRUatnUiKILY9MhOVC4IlVPrgu/1UCwWWGPPzjRYS1CaK98+IAfpsMn2iUiPGJhjRbU3bZf2uipNL4DrjUrYldDc1YjVjnwYJ4YGFnm0jr3q6UKHuO/E+F7sTAc2H5EQeMPBEbBEYwQDU09SzfRzgUkN6MrLWuLCzq5jaHuhDAVzlFgLoqu5AouNNtTsudQZY4lorGJg6onYJVuzR9Qp/bJMKHi8Hm37Axjw70StOpOPD1Ubk5w+Ei3HBLMo9p1mwBKNdQxMXXGgqVvSeHyMtMtE5jxR1Mi3wYiqXbEhlznTjvItLahVHmurMtX6hZhhezRUatrlTXwVk55WVDx/6Vc4IaLRw8DUEZO7Ac4UA0B8G2rkvg1dPLmnJ/Zo+wMxY16B4x607RblGEHUrK1LcFmtLBiVTuajlkjvMbks2B90qZOxB5+tQ+NHodYhfrjXNsC4yBI74peIdImBqSO8HiYwePQQOtRSK1re7UT/ebUS0uuFd2uo6PX54tYdwqEjoWJLuwf9MV22LNiWlqmDaxofK0PDHj/6+/3wNVdh1WsDyBdh2rZDfsxQEaZcBwy9jXBYClG3rRP+/n70B7vQ/uxqlPsKsPmJAvlRw/rx8eFPQsUjHejoGXryzAXlaNxYID93O1YvWoYa8VjBjzxofKIC3qLNKL/I3i8RpYlEOjF0cn3yZXxPXOCtTv47B9yOi1znkJq61YcVBqSOF0ola25ovWlBqVTrUaYYUCaEiP65occse6dP6tvfJJUvN4cmGTCYpYJH66Wd0TMTdDdJjsjPDi3xEx4EfJul8iKrJHdO5fUmyfqQS2rputJz/IRw4oLkOHFBapy4ILUM5X/yB5zSzgd3swnOFKeOBJvd8KfpEl+HDx/GTTfdJGrpdfLkSUybNk3U9EFP28RtSY5/O6np6XOuR9wlqyN+Z1lkUu9EeD1MIqL0YWDqSitKZvC0EiIiPWJg6oYVlWKSAp5WQkSkPwxM3Yi6PuP97tBJ8T1uFMa3ERFRWjAwdcMKe7V8U9SEwBYnDEqAzihBa2glsLUExhRXMyEiopHFwNQNHzz7w2Ep2+NBldruglfdVeuFa72HExcQEaUJA1NP5poiV67w7QjFpcNdKkbGih4oERGlBQNTT8I9yB43atVZfRwoXBiJUHiugpl+iIj0ioGpG0oPsgo2ZYBP+NhldYWYW1YZEGRDVbVd9DaJiGi0MTB1xLougKYiUVGOXarXwBRhqTTxGCYRUdowMHXFAOeW8EWjKyPHLsPnZw61ERHRaONcsqRJT08Pzp49K2rppcy7qcy/qSd62iZuS3L820lt0qRJyMlJcY3BqxwDk4iISAPukiUiItKAgUlERKQBA5OIiEgDBiYREZEGDEwiIiINGJhEREQaMDCJiIg0YGASERFpwMAkIiLSgIFJRESkAQOTiIhIAwYmERGRBgxMIiIiDRiYREREGjAwiYiINGBgEhERacDAJCIi0oCBSUREpAEDk4guX48bhRkZyFCW+90Iimai8YSBSRcv+h/HmH8kfaiJb49ZlmH18rg28Y+rb0N0ew1ejalHL4Vw94Q2A3tqhq0vbFYeLQj3/QnuP87FvoZxy0iHWI4TLd1NcIjqVSf+MxH3ese/N4XN7w3/rGzwyfeM/tuVl/DjJPhbV++f4LMY+gwIiT6r8udLeSa6BBLRxehukuR/FCVUe0WDJHmr5XpRkxSQvJJLXufyqa1qGXBITd1yVf25UFm9v7zO4Q4odxzic4nHCQm4Her9hp4r/JhRPxveHnkJPW+Ycl+X/P8L6+rqkhYtWiQ999xzomXk/OhHP5Luu+8+qaenR7RcYcprGPOayZTXKOp1HTni/bnCz3XixAnp+9//vnT//feLlpHz/PPPS/Pnz5f++Mc/ipaLIf/+RQ7x9yj+7lUBqUlpL0rUnuhvV/zth99D8Z4OfV7Ezw37XEQ/dqLPT7hN2+eChmMPky5Ojx+tohhmXRdAE/zyf7JqLyoXqM2x5B5IgztfLZpyk/RDckxwrbDDIKoGU+j+Q6yoFL2YVmdZqOeoPm7o8aqsQ9+cg8218tf6Svknkvvoo4/wgx/8AP/wD/+APXv2YPr06WLNyLnxxhvx7rvvIicnB6tXr8a///u/izUjSOn9bXFGXtf43kpNs9wLUXoy0e1y7yXYXBiph3st0W3hpWaPuuqK6+3txZNPPgmj0Qi3240vf/nLYs3ImTlzJuSwxO233w75iw3+9Kc/iTVamGCaW4jCaqXcipbdoqfX44F/RQUKQ7UoBvn+ohhH+dt3LQn99Qb9HertEAOcW7xw7feLXqz8vEVqYYjcsyxzKp9UF7zrhj4FhuIWyF9Y6VKJ4CTSJqpHpyzDeokRib/1KsLffIf9rPzYrui2RL2lqG/lw75xh9viHyeOHJRqj+Vv/uZvpMzMTPXnvv71r4u1I2/q1Knqc1533XXqbVlZ2ZXrcSZ8zaKE3z/RC4zvhSSrJ3yf4x7rSvUwlR7lj3/8Y+maa66JvEbK7alTp8Q9RpbFYgm9BuJ5CwsLNfY45b/Davl3D78HkdfYJX8Gwn+jsZ+H8N6W+B6m8j5G2sKPJ5Zh91WeN+6xI+/jFe7tX+0ylP/JLyyRZkovw6h+e40i9yylqG+ycvcONRk2VMn9wabuFjhzRLMs/PPyP8JoKY70e9RvxTW77agMtyk9HmtV3GMrx3iMKNkq//MQ/fPKsZoZJaHeb1ETAtE9KkHpzRUXF+PDDz/El770JQwODqrtEydOxMqVK3Hrrbeq9Uv1b//2b/jWt74lasnt2rUL7733Hv7zP/9Trcv/KOPzzz+H3W7Hjh071G27ZOHXLEr066QcS7Otj2qLf43j6knfK0X4vpHXW7znSV5/LZYvX47t27djwoQJ6muiUMqLFi3CPffco9ZH2sGDB/H6669Hnl+hvEfz5s1T281ms2iNJ/9tbvDAvs6ExsjffgPwutJmh0f9u439PITfDzkEY/fMyK9tDSojbeH7RRt6T8KfiaHHjnxGL+O9oOG4S5YumrJbR/meJX8/htyjCFlvG7Fdc5rkOFEhdjU5onbrRlN26R05cgTXXnttJCwV58+fx6effoqPP/74spa//OUvCdvjl7/+9a+Qe0/i2aH+wzxlyhR0d3dfXlhGUwJPfY+k4UEnyzdd6j+hUYNSNnZc8UE+x48fj3yBCFNek7NnzyZ8LUdiUXYFf/HFF+LZQ5Rt8vv9mDZtmmhJxQp7eLfs643w5yb+e7wY1nWh91Lu1Ude88hhCRo98ptApJm3evgu1sS7lUZol2x4N2CCx006mCjOu+++q+52mzx5cujx5UUZ6DFaZs2aFXneG264Qfr2t78t/eY3vxFrL1OyXbJiF9+w9yr+/nH1+Pcq5udHaJes1+uVCgoKpOuvvz60LfIyffp0sXbkKc8dfl7l/bnlllukt956S6xNReySVYrh1zHyd3qpu2SVn4sfpBP/WAkeO/I5STDAR37sC31GKDH2MOkitaJkRvSpGj541F1FLtgTDfZJwLCwMHbgjkruuTzZAtPCBN/FI4Mb5Gd7PbTb1eFuiNnNezG+853voKOjA83NzZCDE3JwqoM7PvjgA3GPkfOLX/wCwWAQ8j/EkIMSb7/9trob9o477hD3GAk+1IjdtNYloX0CVTtCw6OGDygR1Nc8CM+2uF3v0RIMAFNtFQPALpHVakVbW5v6usjhBTk4cerUKbz44oviHiPH5/Nh586d6vszZ84cvPbaazhw4AAKC4cP2RlO/r3Xt8Cj/E0vsIf2vhQVwq7+ncrrtiq3sSLvR9SAtdD7hajPUxVs0aeC9HjQojxW5LETiOxxkX82+hQX5dDFRhMaEux1IA1EcBJpEhlMELPEfYuNfLsdWoZ9gx52n8TfvIcviYbEh79hRy3xPawUlB7n3/3d30nf+973RMvIWbp0qdq73bVrl2i5cpK/Zsoy9PpGv4eOIlGOvF7Rr6VDclVH3VfplUR6TsrPyL2gcLnof0r/R7is1q/cYBOlxymHqPTNb35TtIycf/7nf5aMRqPGHmWU6NdFXpS/d+X9UF+zBJ+HmB5e3M/G/40nfF/Dr+/FPjYHAV0WDvohuprFD/ohoqS4S5aIYnZ7E1FiDEyiq5Q6CYE4tomtJTCO9PR5RGMcd8kSERFpwB4mERGRBgxMIiIiDRiYREREGjAwiYiINGBgEhERacDAJCIi0oCBSUREpAEDk4iISAMGJhERkQYMTCIiIg0YmERERBowMImIiDRgYBIREWnAwCQiItKAgUlERKQBA5OIiEgDBiYREZEGDEwiIiINGJhEREQaMDCJiIg0YGASXQG+DRnIyEi1GJFnX4zCx+rg3hPEoPi58cC/dRXyjBkwzl2F1uOikWgcYmASXQHWdRKkcwG0PGoQLSEun9wuSRjo86J+aRY6/6UCJVYjTPYKuD8aY7F5xoeq532iEtYJ9xON6AoCwQONKGvuFO1E4w8Dk+hKmWCAbaFNVGJlZplg/0kLdrqdUCI1uKsOJYuWoWbPWAnNQfieL0fNGVGNsMD5QinM8i9lmFOKhmKLaCcafxiYRKPIVOyCa6moBD2oerQOPt1n5iC6Xi2FY3187zLEVLQZhwISAvs3wzFTNBKNQwxMolFlwrIHHKIs21cFV7NfVPSoH75nl8H+QzeCooXoasXAJBplhvkFsIuyor3Zg1BkBuG+P26w0IZQr27YoKL7owJsT03suoxCuHvk9l4f6px5MGYYsXitR46+IcE9btQ9VgjbbPEzxjwse8qNrug7DXai4R4zbPLPRp5rvS3qOXyoiXleeRHbO0TunW6rwSrrrNB65Xkea4AnPn2T/A6DH7lRUaD8rBF5Trk33ivuT5QOEhFdMQG3Q1I+VuHF5RMrogVaJGfUfYAyqa1PrJP6pLbHo9ZVe0W7JO3871HtRU1SQLSr9tdLcgiL9Q6pydcmlS2Iuj9cUuiRBiRvtVWu26VaX+hJ+/bWSgXh+y1wSR0DanOEtzrqcaK2J+SQVL8k2frwc0EyPNAkHTsnN/mbJKdBua9Vfm3inijud6h3uyS7et+oZelm6Zi4O9FoYw+TaLQZ5N6SKIYE0B8ZTJOFqdmiGGfiRFFIJGuq/JNhftQ/0wnHdgl9u12QQwfWn1hhVlbta0CZeizSg5ZdfvX0lqzbbIgMVdpThfZ9oqzJVEwdeuIYgzuqIsc9Sx5wwDRBLsx0YvUjSosPVSsq0B7dY4z5HbxwrQ+gbL+Egd2ViAwl2t4On9J7JkoDBibRuNMJY3Ep7HL6ZP1jJXYGJHh/ag+F0eQsGNX7yJG1u0OO6pESROurdZFduVOnZIqS/H1htjiGG2xAw7vJjt8GseynLjimA5kz82ASrcox1YHxdBIrjSkMTKLRNjiAPlEMMSJrsiheERbYlPM8EsktRduJQ/B65LB8pxSmfj/an69Hk1h9xfR3wLtVlCH3LqM2Z6LS0xTa93bFHFsd4oB9fqKuqwdBHsekNGFgEo22YFAM8hGWWGBOslvz0phglHtmSU03w2o14tDzhZi1tBGQe6MlYtUVc6Y/tvcaFZIxevvH1axHNL4xMIlG2eCRDrSKsqKg2B61y3Hk9f++AYVzjVi8MROuZhcKDKkOjl6iqF2/KU3PwtDOWiJ9Y2ASjapBeHdE7QCd50JVsca4PCduL8e+OhTMX43Wo3L5gdKRm2ggywxLeIIGuT8diNqN6j869HXBbjFHDfQh0jcGJtEoGtxTh6qfiaEwBjtc/1IOa1wXyzAzamKD3R3okm/6f1uD8g2hpsvRub0WkTMlD3TBf155bA/aRJPCH0h8VFG13w//oB+NGy40kYEJhY+WqdMAKoOQ+iKjgAcxcFoUDWUoXzGafWuiy8PAJLpSzgfh3e0VlRB/t4iV84Pw76pB4YoqNbAMi8rRtKsNlQuG75A0WQtQIMrYsRp5GRmYurARwVzRpjg/gAFRVPX3RQ2e6Udfb5Ijg5lRO0q3y4997SxUdFtQEukNAo0OM0q2DsWh5R8rRfDJtpZg1kQbOucVhNrO96EvOl8HhrYqa3kVGh+3quXGV9xqOON4KxrfVFqsKHulHAXRx1pjfgc5mMObENMe8xREo0ucj0lElyHm5P4ki2mBXSr9yWappTMgxZ2yP0zf7lrJkav8nEEyLyqVanf3DX+O8OQFPldse3gZNsmA7HSHVF9slgzK4y4vl5r2hyYvGOisDz2fwSyVvnYobvsGpEOvlUpmZRIBg10qd4fXeyXXBZ+3TzrU6pJKF5jEepNkfcgltYjnjUjyO7jcTZLc3x7enmhCCKIRlqH8T/4DJCIiohS4S5aIiEgDBiYREZEGDEwiIiINGJhEREQaMDCJiIg0YGASERFpwMAkIiLSgIFJRESkAQOTiIhIAwYmERGRBgxMIiIiDRiYREREGjAwiYiINGBgEhERacDAJCIi0oCBSUREpAEDk4iISAMGJhERkQYMTCIiIg0YmERERBowMImIiDRgYBIREWnAwCQiItKAgUlERKQBA5OIiOiCgP8f9Z/XbvarJV0AAAAASUVORK5CYII=;" vertex="1" parent="1">
          <mxGeometry x="-326" y="263" width="460" height="391" as="geometry" />
        </mxCell>
        <object label="" id="BgcQaN8wiSriz7WGM6qO-2">
          <mxCell style="shape=table;html=1;whiteSpace=wrap;startSize=0;container=1;collapsible=0;childLayout=tableLayout;flipH=0;flipV=0;movable=1;resizable=1;rotatable=1;deletable=1;editable=1;connectable=1;fontFamily=Georgia;swimlaneFillColor=none;" vertex="1" parent="1">
            <mxGeometry x="721" y="311" width="250" height="249.0000000000001" as="geometry" />
          </mxCell>
        </object>
        <mxCell id="BgcQaN8wiSriz7WGM6qO-3" value="" style="shape=tableRow;horizontal=0;startSize=0;swimlaneHead=0;swimlaneBody=0;top=0;left=0;bottom=0;right=0;collapsible=0;dropTarget=0;fillColor=none;points=[[0,0.5],[1,0.5]];portConstraint=eastwest;movable=1;resizable=1;rotatable=1;deletable=1;editable=1;connectable=1;fontFamily=Georgia;swimlaneFillColor=none;strokeColor=#CCCCCC;" vertex="1" parent="BgcQaN8wiSriz7WGM6qO-2">
          <mxGeometry width="250" height="35" as="geometry" />
        </mxCell>
        <mxCell id="BgcQaN8wiSriz7WGM6qO-4" style="shape=partialRectangle;html=1;whiteSpace=wrap;connectable=1;top=0;left=0;bottom=0;right=0;overflow=hidden;movable=1;resizable=1;rotatable=1;deletable=1;editable=1;fontFamily=Georgia;swimlaneFillColor=none;" vertex="1" parent="BgcQaN8wiSriz7WGM6qO-3">
          <mxGeometry width="35" height="35" as="geometry">
            <mxRectangle width="35" height="35" as="alternateBounds" />
          </mxGeometry>
        </mxCell>
        <mxCell id="BgcQaN8wiSriz7WGM6qO-5" style="shape=partialRectangle;html=1;whiteSpace=wrap;connectable=1;top=0;left=0;bottom=0;right=0;overflow=hidden;movable=1;resizable=1;rotatable=1;deletable=1;editable=1;fontFamily=Georgia;swimlaneFillColor=none;fillColor=#f8cecc;strokeColor=#b85450;" vertex="1" parent="BgcQaN8wiSriz7WGM6qO-3">
          <mxGeometry x="35" width="37" height="35" as="geometry">
            <mxRectangle width="37" height="35" as="alternateBounds" />
          </mxGeometry>
        </mxCell>
        <mxCell id="BgcQaN8wiSriz7WGM6qO-6" style="shape=partialRectangle;html=1;whiteSpace=wrap;connectable=1;top=0;left=0;bottom=0;right=0;overflow=hidden;movable=1;resizable=1;rotatable=1;deletable=1;editable=1;fontFamily=Georgia;swimlaneFillColor=none;" vertex="1" parent="BgcQaN8wiSriz7WGM6qO-3">
          <mxGeometry x="72" width="35" height="35" as="geometry">
            <mxRectangle width="35" height="35" as="alternateBounds" />
          </mxGeometry>
        </mxCell>
        <mxCell id="BgcQaN8wiSriz7WGM6qO-7" value="" style="shape=partialRectangle;html=1;whiteSpace=wrap;connectable=1;top=0;left=0;bottom=0;right=0;overflow=hidden;movable=1;resizable=1;rotatable=1;deletable=1;editable=1;fontFamily=Georgia;swimlaneFillColor=none;" vertex="1" parent="BgcQaN8wiSriz7WGM6qO-3">
          <mxGeometry x="107" width="35" height="35" as="geometry">
            <mxRectangle width="35" height="35" as="alternateBounds" />
          </mxGeometry>
        </mxCell>
        <mxCell id="BgcQaN8wiSriz7WGM6qO-8" value="" style="shape=partialRectangle;html=1;whiteSpace=wrap;connectable=1;top=0;left=0;bottom=0;right=0;overflow=hidden;movable=1;resizable=1;rotatable=1;deletable=1;editable=1;fontFamily=Georgia;swimlaneFillColor=none;" vertex="1" parent="BgcQaN8wiSriz7WGM6qO-3">
          <mxGeometry x="142" width="36" height="35" as="geometry">
            <mxRectangle width="36" height="35" as="alternateBounds" />
          </mxGeometry>
        </mxCell>
        <mxCell id="BgcQaN8wiSriz7WGM6qO-9" style="shape=partialRectangle;html=1;whiteSpace=wrap;connectable=1;top=0;left=0;bottom=0;right=0;overflow=hidden;movable=1;resizable=1;rotatable=1;deletable=1;editable=1;fontFamily=Georgia;swimlaneFillColor=none;" vertex="1" parent="BgcQaN8wiSriz7WGM6qO-3">
          <mxGeometry x="178" width="37" height="35" as="geometry">
            <mxRectangle width="37" height="35" as="alternateBounds" />
          </mxGeometry>
        </mxCell>
        <mxCell id="BgcQaN8wiSriz7WGM6qO-10" value="" style="shape=partialRectangle;html=1;whiteSpace=wrap;connectable=1;top=0;left=0;bottom=0;right=0;overflow=hidden;movable=1;resizable=1;rotatable=1;deletable=1;editable=1;fontFamily=Georgia;swimlaneFillColor=none;" vertex="1" parent="BgcQaN8wiSriz7WGM6qO-3">
          <mxGeometry x="215" width="35" height="35" as="geometry">
            <mxRectangle width="35" height="35" as="alternateBounds" />
          </mxGeometry>
        </mxCell>
        <mxCell id="BgcQaN8wiSriz7WGM6qO-11" style="shape=tableRow;horizontal=0;startSize=0;swimlaneHead=0;swimlaneBody=0;top=0;left=0;bottom=0;right=0;collapsible=0;dropTarget=0;fillColor=none;points=[[0,0.5],[1,0.5]];portConstraint=eastwest;movable=1;resizable=1;rotatable=1;deletable=1;editable=1;connectable=1;fontFamily=Georgia;swimlaneFillColor=none;strokeColor=#CCCCCC;" vertex="1" parent="BgcQaN8wiSriz7WGM6qO-2">
          <mxGeometry y="35" width="250" height="35" as="geometry" />
        </mxCell>
        <mxCell id="BgcQaN8wiSriz7WGM6qO-12" style="shape=partialRectangle;html=1;whiteSpace=wrap;connectable=1;top=0;left=0;bottom=0;right=0;overflow=hidden;movable=1;resizable=1;rotatable=1;deletable=1;editable=1;fontFamily=Georgia;swimlaneFillColor=none;fillColor=#f8cecc;strokeColor=#b85450;" vertex="1" parent="BgcQaN8wiSriz7WGM6qO-11">
          <mxGeometry width="35" height="35" as="geometry">
            <mxRectangle width="35" height="35" as="alternateBounds" />
          </mxGeometry>
        </mxCell>
        <mxCell id="BgcQaN8wiSriz7WGM6qO-13" style="shape=partialRectangle;html=1;whiteSpace=wrap;connectable=1;top=0;left=0;bottom=0;right=0;overflow=hidden;movable=1;resizable=1;rotatable=1;deletable=1;editable=1;fontFamily=Georgia;swimlaneFillColor=none;fillColor=#f8cecc;strokeColor=#b85450;" vertex="1" parent="BgcQaN8wiSriz7WGM6qO-11">
          <mxGeometry x="35" width="37" height="35" as="geometry">
            <mxRectangle width="37" height="35" as="alternateBounds" />
          </mxGeometry>
        </mxCell>
        <mxCell id="BgcQaN8wiSriz7WGM6qO-14" style="shape=partialRectangle;html=1;whiteSpace=wrap;connectable=1;top=0;left=0;bottom=0;right=0;overflow=hidden;movable=1;resizable=1;rotatable=1;deletable=1;editable=1;fontFamily=Georgia;swimlaneFillColor=none;fillColor=#f8cecc;strokeColor=#b85450;" vertex="1" parent="BgcQaN8wiSriz7WGM6qO-11">
          <mxGeometry x="72" width="35" height="35" as="geometry">
            <mxRectangle width="35" height="35" as="alternateBounds" />
          </mxGeometry>
        </mxCell>
        <mxCell id="BgcQaN8wiSriz7WGM6qO-15" style="shape=partialRectangle;html=1;whiteSpace=wrap;connectable=1;top=0;left=0;bottom=0;right=0;overflow=hidden;movable=1;resizable=1;rotatable=1;deletable=1;editable=1;fontFamily=Georgia;swimlaneFillColor=none;" vertex="1" parent="BgcQaN8wiSriz7WGM6qO-11">
          <mxGeometry x="107" width="35" height="35" as="geometry">
            <mxRectangle width="35" height="35" as="alternateBounds" />
          </mxGeometry>
        </mxCell>
        <mxCell id="BgcQaN8wiSriz7WGM6qO-16" style="shape=partialRectangle;html=1;whiteSpace=wrap;connectable=1;top=0;left=0;bottom=0;right=0;overflow=hidden;movable=1;resizable=1;rotatable=1;deletable=1;editable=1;fontFamily=Georgia;swimlaneFillColor=none;" vertex="1" parent="BgcQaN8wiSriz7WGM6qO-11">
          <mxGeometry x="142" width="36" height="35" as="geometry">
            <mxRectangle width="36" height="35" as="alternateBounds" />
          </mxGeometry>
        </mxCell>
        <mxCell id="BgcQaN8wiSriz7WGM6qO-17" style="shape=partialRectangle;html=1;whiteSpace=wrap;connectable=1;top=0;left=0;bottom=0;right=0;overflow=hidden;movable=1;resizable=1;rotatable=1;deletable=1;editable=1;fontFamily=Georgia;swimlaneFillColor=none;" vertex="1" parent="BgcQaN8wiSriz7WGM6qO-11">
          <mxGeometry x="178" width="37" height="35" as="geometry">
            <mxRectangle width="37" height="35" as="alternateBounds" />
          </mxGeometry>
        </mxCell>
        <mxCell id="BgcQaN8wiSriz7WGM6qO-18" style="shape=partialRectangle;html=1;whiteSpace=wrap;connectable=1;top=0;left=0;bottom=0;right=0;overflow=hidden;movable=1;resizable=1;rotatable=1;deletable=1;editable=1;fontFamily=Georgia;swimlaneFillColor=none;" vertex="1" parent="BgcQaN8wiSriz7WGM6qO-11">
          <mxGeometry x="215" width="35" height="35" as="geometry">
            <mxRectangle width="35" height="35" as="alternateBounds" />
          </mxGeometry>
        </mxCell>
        <mxCell id="BgcQaN8wiSriz7WGM6qO-19" value="" style="shape=tableRow;horizontal=0;startSize=0;swimlaneHead=0;swimlaneBody=0;top=0;left=0;bottom=0;right=0;collapsible=0;dropTarget=0;fillColor=none;points=[[0,0.5],[1,0.5]];portConstraint=eastwest;movable=1;resizable=1;rotatable=1;deletable=1;editable=1;connectable=1;fontFamily=Georgia;swimlaneFillColor=none;strokeColor=#CCCCCC;" vertex="1" parent="BgcQaN8wiSriz7WGM6qO-2">
          <mxGeometry y="70" width="250" height="35" as="geometry" />
        </mxCell>
        <mxCell id="BgcQaN8wiSriz7WGM6qO-20" style="shape=partialRectangle;html=1;whiteSpace=wrap;connectable=1;top=0;left=0;bottom=0;right=0;overflow=hidden;movable=1;resizable=1;rotatable=1;deletable=1;editable=1;fontFamily=Georgia;swimlaneFillColor=none;" vertex="1" parent="BgcQaN8wiSriz7WGM6qO-19">
          <mxGeometry width="35" height="35" as="geometry">
            <mxRectangle width="35" height="35" as="alternateBounds" />
          </mxGeometry>
        </mxCell>
        <mxCell id="BgcQaN8wiSriz7WGM6qO-21" style="shape=partialRectangle;html=1;whiteSpace=wrap;connectable=1;top=0;left=0;bottom=0;right=0;overflow=hidden;movable=1;resizable=1;rotatable=1;deletable=1;editable=1;fontFamily=Georgia;swimlaneFillColor=none;fillColor=#f8cecc;strokeColor=#b85450;" vertex="1" parent="BgcQaN8wiSriz7WGM6qO-19">
          <mxGeometry x="35" width="37" height="35" as="geometry">
            <mxRectangle width="37" height="35" as="alternateBounds" />
          </mxGeometry>
        </mxCell>
        <mxCell id="BgcQaN8wiSriz7WGM6qO-22" style="shape=partialRectangle;html=1;whiteSpace=wrap;connectable=1;top=0;left=0;bottom=0;right=0;overflow=hidden;movable=1;resizable=1;rotatable=1;deletable=1;editable=1;fontFamily=Georgia;swimlaneFillColor=none;" vertex="1" parent="BgcQaN8wiSriz7WGM6qO-19">
          <mxGeometry x="72" width="35" height="35" as="geometry">
            <mxRectangle width="35" height="35" as="alternateBounds" />
          </mxGeometry>
        </mxCell>
        <mxCell id="BgcQaN8wiSriz7WGM6qO-23" value="" style="shape=partialRectangle;html=1;whiteSpace=wrap;connectable=1;top=0;left=0;bottom=0;right=0;overflow=hidden;movable=1;resizable=1;rotatable=1;deletable=1;editable=1;fontFamily=Georgia;swimlaneFillColor=none;" vertex="1" parent="BgcQaN8wiSriz7WGM6qO-19">
          <mxGeometry x="107" width="35" height="35" as="geometry">
            <mxRectangle width="35" height="35" as="alternateBounds" />
          </mxGeometry>
        </mxCell>
        <mxCell id="BgcQaN8wiSriz7WGM6qO-24" value="" style="shape=partialRectangle;html=1;whiteSpace=wrap;connectable=1;top=0;left=0;bottom=0;right=0;overflow=hidden;movable=1;resizable=1;rotatable=1;deletable=1;editable=1;fontFamily=Georgia;swimlaneFillColor=none;" vertex="1" parent="BgcQaN8wiSriz7WGM6qO-19">
          <mxGeometry x="142" width="36" height="35" as="geometry">
            <mxRectangle width="36" height="35" as="alternateBounds" />
          </mxGeometry>
        </mxCell>
        <mxCell id="BgcQaN8wiSriz7WGM6qO-25" style="shape=partialRectangle;html=1;whiteSpace=wrap;connectable=1;top=0;left=0;bottom=0;right=0;overflow=hidden;movable=1;resizable=1;rotatable=1;deletable=1;editable=1;fontFamily=Georgia;swimlaneFillColor=none;" vertex="1" parent="BgcQaN8wiSriz7WGM6qO-19">
          <mxGeometry x="178" width="37" height="35" as="geometry">
            <mxRectangle width="37" height="35" as="alternateBounds" />
          </mxGeometry>
        </mxCell>
        <mxCell id="BgcQaN8wiSriz7WGM6qO-26" value="" style="shape=partialRectangle;html=1;whiteSpace=wrap;connectable=1;top=0;left=0;bottom=0;right=0;overflow=hidden;movable=1;resizable=1;rotatable=1;deletable=1;editable=1;fontFamily=Georgia;swimlaneFillColor=none;" vertex="1" parent="BgcQaN8wiSriz7WGM6qO-19">
          <mxGeometry x="215" width="35" height="35" as="geometry">
            <mxRectangle width="35" height="35" as="alternateBounds" />
          </mxGeometry>
        </mxCell>
        <mxCell id="BgcQaN8wiSriz7WGM6qO-27" style="shape=tableRow;horizontal=0;startSize=0;swimlaneHead=0;swimlaneBody=0;top=0;left=0;bottom=0;right=0;collapsible=0;dropTarget=0;fillColor=none;points=[[0,0.5],[1,0.5]];portConstraint=eastwest;movable=1;resizable=1;rotatable=1;deletable=1;editable=1;connectable=1;fontFamily=Georgia;swimlaneFillColor=none;strokeColor=#CCCCCC;" vertex="1" parent="BgcQaN8wiSriz7WGM6qO-2">
          <mxGeometry y="105" width="250" height="37" as="geometry" />
        </mxCell>
        <mxCell id="BgcQaN8wiSriz7WGM6qO-28" style="shape=partialRectangle;html=1;whiteSpace=wrap;connectable=1;top=0;left=0;bottom=0;right=0;overflow=hidden;movable=1;resizable=1;rotatable=1;deletable=1;editable=1;fontFamily=Georgia;swimlaneFillColor=none;" vertex="1" parent="BgcQaN8wiSriz7WGM6qO-27">
          <mxGeometry width="35" height="37" as="geometry">
            <mxRectangle width="35" height="37" as="alternateBounds" />
          </mxGeometry>
        </mxCell>
        <mxCell id="BgcQaN8wiSriz7WGM6qO-29" style="shape=partialRectangle;html=1;whiteSpace=wrap;connectable=1;top=0;left=0;bottom=0;right=0;overflow=hidden;movable=1;resizable=1;rotatable=1;deletable=1;editable=1;fontFamily=Georgia;swimlaneFillColor=none;" vertex="1" parent="BgcQaN8wiSriz7WGM6qO-27">
          <mxGeometry x="35" width="37" height="37" as="geometry">
            <mxRectangle width="37" height="37" as="alternateBounds" />
          </mxGeometry>
        </mxCell>
        <mxCell id="BgcQaN8wiSriz7WGM6qO-30" style="shape=partialRectangle;html=1;whiteSpace=wrap;connectable=1;top=0;left=0;bottom=0;right=0;overflow=hidden;movable=1;resizable=1;rotatable=1;deletable=1;editable=1;fontFamily=Georgia;swimlaneFillColor=none;fillColor=#FF8000;" vertex="1" parent="BgcQaN8wiSriz7WGM6qO-27">
          <mxGeometry x="72" width="35" height="37" as="geometry">
            <mxRectangle width="35" height="37" as="alternateBounds" />
          </mxGeometry>
        </mxCell>
        <mxCell id="BgcQaN8wiSriz7WGM6qO-31" style="shape=partialRectangle;html=1;whiteSpace=wrap;connectable=1;top=0;left=0;bottom=0;right=0;overflow=hidden;movable=1;resizable=1;rotatable=1;deletable=1;editable=1;fontFamily=Georgia;swimlaneFillColor=none;" vertex="1" parent="BgcQaN8wiSriz7WGM6qO-27">
          <mxGeometry x="107" width="35" height="37" as="geometry">
            <mxRectangle width="35" height="37" as="alternateBounds" />
          </mxGeometry>
        </mxCell>
        <mxCell id="BgcQaN8wiSriz7WGM6qO-32" style="shape=partialRectangle;html=1;whiteSpace=wrap;connectable=1;top=0;left=0;bottom=0;right=0;overflow=hidden;movable=1;resizable=1;rotatable=1;deletable=1;editable=1;fontFamily=Georgia;swimlaneFillColor=none;fillColor=#FF8000;" vertex="1" parent="BgcQaN8wiSriz7WGM6qO-27">
          <mxGeometry x="142" width="36" height="37" as="geometry">
            <mxRectangle width="36" height="37" as="alternateBounds" />
          </mxGeometry>
        </mxCell>
        <mxCell id="BgcQaN8wiSriz7WGM6qO-33" style="shape=partialRectangle;html=1;whiteSpace=wrap;connectable=1;top=0;left=0;bottom=0;right=0;overflow=hidden;pointerEvents=1;movable=1;resizable=1;rotatable=1;deletable=1;editable=1;fontFamily=Georgia;swimlaneFillColor=none;" vertex="1" parent="BgcQaN8wiSriz7WGM6qO-27">
          <mxGeometry x="178" width="37" height="37" as="geometry">
            <mxRectangle width="37" height="37" as="alternateBounds" />
          </mxGeometry>
        </mxCell>
        <mxCell id="BgcQaN8wiSriz7WGM6qO-34" style="shape=partialRectangle;html=1;whiteSpace=wrap;connectable=1;top=0;left=0;bottom=0;right=0;overflow=hidden;pointerEvents=1;movable=1;resizable=1;rotatable=1;deletable=1;editable=1;fontFamily=Georgia;swimlaneFillColor=none;" vertex="1" parent="BgcQaN8wiSriz7WGM6qO-27">
          <mxGeometry x="215" width="35" height="37" as="geometry">
            <mxRectangle width="35" height="37" as="alternateBounds" />
          </mxGeometry>
        </mxCell>
        <mxCell id="BgcQaN8wiSriz7WGM6qO-35" style="shape=tableRow;horizontal=0;startSize=0;swimlaneHead=0;swimlaneBody=0;top=0;left=0;bottom=0;right=0;collapsible=0;dropTarget=0;fillColor=none;points=[[0,0.5],[1,0.5]];portConstraint=eastwest;movable=1;resizable=1;rotatable=1;deletable=1;editable=1;connectable=1;fontFamily=Georgia;swimlaneFillColor=none;strokeColor=#CCCCCC;" vertex="1" parent="BgcQaN8wiSriz7WGM6qO-2">
          <mxGeometry y="142" width="250" height="36" as="geometry" />
        </mxCell>
        <mxCell id="BgcQaN8wiSriz7WGM6qO-36" style="shape=partialRectangle;html=1;whiteSpace=wrap;connectable=1;top=0;left=0;bottom=0;right=0;overflow=hidden;movable=1;resizable=1;rotatable=1;deletable=1;editable=1;fontFamily=Georgia;swimlaneFillColor=none;" vertex="1" parent="BgcQaN8wiSriz7WGM6qO-35">
          <mxGeometry width="35" height="36" as="geometry">
            <mxRectangle width="35" height="36" as="alternateBounds" />
          </mxGeometry>
        </mxCell>
        <mxCell id="BgcQaN8wiSriz7WGM6qO-37" style="shape=partialRectangle;html=1;whiteSpace=wrap;connectable=1;top=0;left=0;bottom=0;right=0;overflow=hidden;movable=1;resizable=1;rotatable=1;deletable=1;editable=1;fontFamily=Georgia;swimlaneFillColor=none;" vertex="1" parent="BgcQaN8wiSriz7WGM6qO-35">
          <mxGeometry x="35" width="37" height="36" as="geometry">
            <mxRectangle width="37" height="36" as="alternateBounds" />
          </mxGeometry>
        </mxCell>
        <mxCell id="BgcQaN8wiSriz7WGM6qO-38" style="shape=partialRectangle;html=1;whiteSpace=wrap;connectable=1;top=0;left=0;bottom=0;right=0;overflow=hidden;movable=1;resizable=1;rotatable=1;deletable=1;editable=1;fontFamily=Georgia;swimlaneFillColor=none;" vertex="1" parent="BgcQaN8wiSriz7WGM6qO-35">
          <mxGeometry x="72" width="35" height="36" as="geometry">
            <mxRectangle width="35" height="36" as="alternateBounds" />
          </mxGeometry>
        </mxCell>
        <mxCell id="BgcQaN8wiSriz7WGM6qO-39" style="shape=partialRectangle;html=1;whiteSpace=wrap;connectable=1;top=0;left=0;bottom=0;right=0;overflow=hidden;movable=1;resizable=1;rotatable=1;deletable=1;editable=1;fontFamily=Georgia;swimlaneFillColor=none;" vertex="1" parent="BgcQaN8wiSriz7WGM6qO-35">
          <mxGeometry x="107" width="35" height="36" as="geometry">
            <mxRectangle width="35" height="36" as="alternateBounds" />
          </mxGeometry>
        </mxCell>
        <mxCell id="BgcQaN8wiSriz7WGM6qO-40" style="shape=partialRectangle;html=1;whiteSpace=wrap;connectable=1;top=0;left=0;bottom=0;right=0;overflow=hidden;movable=1;resizable=1;rotatable=1;deletable=1;editable=1;fontFamily=Georgia;swimlaneFillColor=none;" vertex="1" parent="BgcQaN8wiSriz7WGM6qO-35">
          <mxGeometry x="142" width="36" height="36" as="geometry">
            <mxRectangle width="36" height="36" as="alternateBounds" />
          </mxGeometry>
        </mxCell>
        <mxCell id="BgcQaN8wiSriz7WGM6qO-41" style="shape=partialRectangle;html=1;whiteSpace=wrap;connectable=1;top=0;left=0;bottom=0;right=0;overflow=hidden;pointerEvents=1;movable=1;resizable=1;rotatable=1;deletable=1;editable=1;fontFamily=Georgia;swimlaneFillColor=none;fillColor=#f8cecc;strokeColor=#b85450;" vertex="1" parent="BgcQaN8wiSriz7WGM6qO-35">
          <mxGeometry x="178" width="37" height="36" as="geometry">
            <mxRectangle width="37" height="36" as="alternateBounds" />
          </mxGeometry>
        </mxCell>
        <mxCell id="BgcQaN8wiSriz7WGM6qO-42" style="shape=partialRectangle;html=1;whiteSpace=wrap;connectable=1;top=0;left=0;bottom=0;right=0;overflow=hidden;pointerEvents=1;movable=1;resizable=1;rotatable=1;deletable=1;editable=1;fontFamily=Georgia;swimlaneFillColor=none;" vertex="1" parent="BgcQaN8wiSriz7WGM6qO-35">
          <mxGeometry x="215" width="35" height="36" as="geometry">
            <mxRectangle width="35" height="36" as="alternateBounds" />
          </mxGeometry>
        </mxCell>
        <mxCell id="BgcQaN8wiSriz7WGM6qO-43" value="" style="shape=tableRow;horizontal=0;startSize=0;swimlaneHead=0;swimlaneBody=0;top=0;left=0;bottom=0;right=0;collapsible=0;dropTarget=0;fillColor=none;points=[[0,0.5],[1,0.5]];portConstraint=eastwest;movable=1;resizable=1;rotatable=1;deletable=1;editable=1;connectable=1;fontFamily=Georgia;swimlaneFillColor=none;strokeColor=#CCCCCC;" vertex="1" parent="BgcQaN8wiSriz7WGM6qO-2">
          <mxGeometry y="178" width="250" height="36" as="geometry" />
        </mxCell>
        <mxCell id="BgcQaN8wiSriz7WGM6qO-44" style="shape=partialRectangle;html=1;whiteSpace=wrap;connectable=1;top=0;left=0;bottom=0;right=0;overflow=hidden;movable=1;resizable=1;rotatable=1;deletable=1;editable=1;fontFamily=Georgia;swimlaneFillColor=none;" vertex="1" parent="BgcQaN8wiSriz7WGM6qO-43">
          <mxGeometry width="35" height="36" as="geometry">
            <mxRectangle width="35" height="36" as="alternateBounds" />
          </mxGeometry>
        </mxCell>
        <mxCell id="BgcQaN8wiSriz7WGM6qO-45" style="shape=partialRectangle;html=1;whiteSpace=wrap;connectable=1;top=0;left=0;bottom=0;right=0;overflow=hidden;movable=1;resizable=1;rotatable=1;deletable=1;editable=1;fontFamily=Georgia;swimlaneFillColor=none;" vertex="1" parent="BgcQaN8wiSriz7WGM6qO-43">
          <mxGeometry x="35" width="37" height="36" as="geometry">
            <mxRectangle width="37" height="36" as="alternateBounds" />
          </mxGeometry>
        </mxCell>
        <mxCell id="BgcQaN8wiSriz7WGM6qO-46" style="shape=partialRectangle;html=1;whiteSpace=wrap;connectable=1;top=0;left=0;bottom=0;right=0;overflow=hidden;movable=1;resizable=1;rotatable=1;deletable=1;editable=1;fontFamily=Georgia;swimlaneFillColor=none;" vertex="1" parent="BgcQaN8wiSriz7WGM6qO-43">
          <mxGeometry x="72" width="35" height="36" as="geometry">
            <mxRectangle width="35" height="36" as="alternateBounds" />
          </mxGeometry>
        </mxCell>
        <mxCell id="BgcQaN8wiSriz7WGM6qO-47" value="" style="shape=partialRectangle;html=1;whiteSpace=wrap;connectable=1;top=0;left=0;bottom=0;right=0;overflow=hidden;movable=1;resizable=1;rotatable=1;deletable=1;editable=1;fontFamily=Georgia;swimlaneFillColor=none;" vertex="1" parent="BgcQaN8wiSriz7WGM6qO-43">
          <mxGeometry x="107" width="35" height="36" as="geometry">
            <mxRectangle width="35" height="36" as="alternateBounds" />
          </mxGeometry>
        </mxCell>
        <mxCell id="BgcQaN8wiSriz7WGM6qO-48" value="" style="shape=partialRectangle;html=1;whiteSpace=wrap;connectable=1;top=0;left=0;bottom=0;right=0;overflow=hidden;movable=1;resizable=1;rotatable=1;deletable=1;editable=1;fontFamily=Georgia;swimlaneFillColor=none;fillColor=#f8cecc;strokeColor=#b85450;" vertex="1" parent="BgcQaN8wiSriz7WGM6qO-43">
          <mxGeometry x="142" width="36" height="36" as="geometry">
            <mxRectangle width="36" height="36" as="alternateBounds" />
          </mxGeometry>
        </mxCell>
        <mxCell id="BgcQaN8wiSriz7WGM6qO-49" style="shape=partialRectangle;html=1;whiteSpace=wrap;connectable=1;top=0;left=0;bottom=0;right=0;overflow=hidden;pointerEvents=1;movable=1;resizable=1;rotatable=1;deletable=1;editable=1;fontFamily=Georgia;swimlaneFillColor=none;fillColor=#f8cecc;strokeColor=#b85450;" vertex="1" parent="BgcQaN8wiSriz7WGM6qO-43">
          <mxGeometry x="178" width="37" height="36" as="geometry">
            <mxRectangle width="37" height="36" as="alternateBounds" />
          </mxGeometry>
        </mxCell>
        <mxCell id="BgcQaN8wiSriz7WGM6qO-50" value="" style="shape=partialRectangle;html=1;whiteSpace=wrap;connectable=1;top=0;left=0;bottom=0;right=0;overflow=hidden;pointerEvents=1;movable=1;resizable=1;rotatable=1;deletable=1;editable=1;fontFamily=Georgia;swimlaneFillColor=none;fillColor=#f8cecc;strokeColor=#b85450;" vertex="1" parent="BgcQaN8wiSriz7WGM6qO-43">
          <mxGeometry x="215" width="35" height="36" as="geometry">
            <mxRectangle width="35" height="36" as="alternateBounds" />
          </mxGeometry>
        </mxCell>
        <mxCell id="BgcQaN8wiSriz7WGM6qO-51" style="shape=tableRow;horizontal=0;startSize=0;swimlaneHead=0;swimlaneBody=0;top=0;left=0;bottom=0;right=0;collapsible=0;dropTarget=0;fillColor=none;points=[[0,0.5],[1,0.5]];portConstraint=eastwest;movable=1;resizable=1;rotatable=1;deletable=1;editable=1;connectable=1;fontFamily=Georgia;swimlaneFillColor=none;strokeColor=#CCCCCC;" vertex="1" parent="BgcQaN8wiSriz7WGM6qO-2">
          <mxGeometry y="214" width="250" height="35" as="geometry" />
        </mxCell>
        <mxCell id="BgcQaN8wiSriz7WGM6qO-52" style="shape=partialRectangle;html=1;whiteSpace=wrap;connectable=1;top=0;left=0;bottom=0;right=0;overflow=hidden;movable=1;resizable=1;rotatable=1;deletable=1;editable=1;fontFamily=Georgia;swimlaneFillColor=none;" vertex="1" parent="BgcQaN8wiSriz7WGM6qO-51">
          <mxGeometry width="35" height="35" as="geometry">
            <mxRectangle width="35" height="35" as="alternateBounds" />
          </mxGeometry>
        </mxCell>
        <mxCell id="BgcQaN8wiSriz7WGM6qO-53" style="shape=partialRectangle;html=1;whiteSpace=wrap;connectable=1;top=0;left=0;bottom=0;right=0;overflow=hidden;movable=1;resizable=1;rotatable=1;deletable=1;editable=1;fontFamily=Georgia;swimlaneFillColor=none;" vertex="1" parent="BgcQaN8wiSriz7WGM6qO-51">
          <mxGeometry x="35" width="37" height="35" as="geometry">
            <mxRectangle width="37" height="35" as="alternateBounds" />
          </mxGeometry>
        </mxCell>
        <mxCell id="BgcQaN8wiSriz7WGM6qO-54" style="shape=partialRectangle;html=1;whiteSpace=wrap;connectable=1;top=0;left=0;bottom=0;right=0;overflow=hidden;movable=1;resizable=1;rotatable=1;deletable=1;editable=1;fontFamily=Georgia;swimlaneFillColor=none;" vertex="1" parent="BgcQaN8wiSriz7WGM6qO-51">
          <mxGeometry x="72" width="35" height="35" as="geometry">
            <mxRectangle width="35" height="35" as="alternateBounds" />
          </mxGeometry>
        </mxCell>
        <mxCell id="BgcQaN8wiSriz7WGM6qO-55" style="shape=partialRectangle;html=1;whiteSpace=wrap;connectable=1;top=0;left=0;bottom=0;right=0;overflow=hidden;movable=1;resizable=1;rotatable=1;deletable=1;editable=1;fontFamily=Georgia;swimlaneFillColor=none;" vertex="1" parent="BgcQaN8wiSriz7WGM6qO-51">
          <mxGeometry x="107" width="35" height="35" as="geometry">
            <mxRectangle width="35" height="35" as="alternateBounds" />
          </mxGeometry>
        </mxCell>
        <mxCell id="BgcQaN8wiSriz7WGM6qO-56" style="shape=partialRectangle;html=1;whiteSpace=wrap;connectable=1;top=0;left=0;bottom=0;right=0;overflow=hidden;movable=1;resizable=1;rotatable=1;deletable=1;editable=1;fontFamily=Georgia;swimlaneFillColor=none;" vertex="1" parent="BgcQaN8wiSriz7WGM6qO-51">
          <mxGeometry x="142" width="36" height="35" as="geometry">
            <mxRectangle width="36" height="35" as="alternateBounds" />
          </mxGeometry>
        </mxCell>
        <mxCell id="BgcQaN8wiSriz7WGM6qO-57" style="shape=partialRectangle;html=1;whiteSpace=wrap;connectable=1;top=0;left=0;bottom=0;right=0;overflow=hidden;pointerEvents=1;movable=1;resizable=1;rotatable=1;deletable=1;editable=1;fontFamily=Georgia;swimlaneFillColor=none;fillColor=#f8cecc;strokeColor=#b85450;" vertex="1" parent="BgcQaN8wiSriz7WGM6qO-51">
          <mxGeometry x="178" width="37" height="35" as="geometry">
            <mxRectangle width="37" height="35" as="alternateBounds" />
          </mxGeometry>
        </mxCell>
        <mxCell id="BgcQaN8wiSriz7WGM6qO-58" style="shape=partialRectangle;html=1;whiteSpace=wrap;connectable=1;top=0;left=0;bottom=0;right=0;overflow=hidden;pointerEvents=1;movable=1;resizable=1;rotatable=1;deletable=1;editable=1;fontFamily=Georgia;swimlaneFillColor=none;" vertex="1" parent="BgcQaN8wiSriz7WGM6qO-51">
          <mxGeometry x="215" width="35" height="35" as="geometry">
            <mxRectangle width="35" height="35" as="alternateBounds" />
          </mxGeometry>
        </mxCell>
        <mxCell id="BgcQaN8wiSriz7WGM6qO-59" value="&lt;span style=&quot;font-weight: 400;&quot;&gt;&quot;&lt;/span&gt;STUDY&lt;br&gt;&lt;span style=&quot;font-weight: normal;&quot;&gt;&amp;nbsp; &amp;nbsp;music&quot;&lt;/span&gt;" style="text;strokeColor=none;fillColor=none;html=1;fontSize=24;fontStyle=1;verticalAlign=middle;align=center;fontFamily=Georgia;" vertex="1" parent="1">
          <mxGeometry x="721" y="481" width="110" height="50" as="geometry" />
        </mxCell>
        <mxCell id="BgcQaN8wiSriz7WGM6qO-60" value="&lt;span style=&quot;font-weight: 400;&quot;&gt;&quot;study&lt;/span&gt;&lt;br&gt;&lt;span style=&quot;font-weight: normal;&quot;&gt;&amp;nbsp; &amp;nbsp;&lt;/span&gt;MUSIC&lt;span style=&quot;font-weight: normal;&quot;&gt;&quot;&lt;/span&gt;" style="text;strokeColor=none;fillColor=none;html=1;fontSize=24;fontStyle=1;verticalAlign=middle;align=center;fontFamily=Georgia;" vertex="1" parent="1">
          <mxGeometry x="861" y="341" width="110" height="50" as="geometry" />
        </mxCell>
        <mxCell id="BgcQaN8wiSriz7WGM6qO-61" value="" style="group" vertex="1" connectable="0" parent="1">
          <mxGeometry x="721" y="566" width="250" height="40" as="geometry" />
        </mxCell>
        <mxCell id="BgcQaN8wiSriz7WGM6qO-62" value="" style="endArrow=classic;startArrow=classic;html=1;rounded=0;fontFamily=Georgia;" edge="1" parent="BgcQaN8wiSriz7WGM6qO-61">
          <mxGeometry width="50" height="50" relative="1" as="geometry">
            <mxPoint x="48.61111111111111" y="19.58000000000004" as="sourcePoint" />
            <mxPoint x="90.27777777777777" y="19.58000000000004" as="targetPoint" />
            <Array as="points">
              <mxPoint x="72.91666666666666" y="19.58000000000004" />
            </Array>
          </mxGeometry>
        </mxCell>
        <mxCell id="BgcQaN8wiSriz7WGM6qO-63" value="" style="endArrow=classic;startArrow=classic;html=1;rounded=0;fontFamily=Georgia;" edge="1" parent="BgcQaN8wiSriz7WGM6qO-61">
          <mxGeometry width="50" height="50" relative="1" as="geometry">
            <mxPoint x="152.77777777777777" y="19.58000000000004" as="sourcePoint" />
            <mxPoint x="194.44444444444443" y="19.58000000000004" as="targetPoint" />
          </mxGeometry>
        </mxCell>
        <mxCell id="BgcQaN8wiSriz7WGM6qO-64" value="Equal" style="text;html=1;strokeColor=none;fillColor=none;align=center;verticalAlign=middle;whiteSpace=wrap;rounded=0;fontFamily=Georgia;fontStyle=1" vertex="1" parent="BgcQaN8wiSriz7WGM6qO-61">
          <mxGeometry x="102.08333333333333" y="5" width="41.666666666666664" height="30" as="geometry" />
        </mxCell>
        <mxCell id="BgcQaN8wiSriz7WGM6qO-65" value="STUDY" style="text;strokeColor=none;fillColor=none;html=1;fontSize=12;fontStyle=1;verticalAlign=middle;align=center;fontFamily=Georgia;" vertex="1" parent="BgcQaN8wiSriz7WGM6qO-61">
          <mxGeometry width="48.61111111111111" height="40" as="geometry" />
        </mxCell>
        <mxCell id="BgcQaN8wiSriz7WGM6qO-66" value="MUSIC" style="text;strokeColor=none;fillColor=none;html=1;fontSize=12;fontStyle=1;verticalAlign=middle;align=center;fontFamily=Georgia;" vertex="1" parent="BgcQaN8wiSriz7WGM6qO-61">
          <mxGeometry x="194.44444444444443" y="2.5" width="55.55555555555556" height="35" as="geometry" />
        </mxCell>
        <mxCell id="BgcQaN8wiSriz7WGM6qO-67" value="" style="group;rotation=-90;" vertex="1" connectable="0" parent="1">
          <mxGeometry x="561" y="415.5" width="250" height="40" as="geometry" />
        </mxCell>
        <mxCell id="BgcQaN8wiSriz7WGM6qO-68" value="" style="endArrow=classic;startArrow=classic;html=1;rounded=0;fontFamily=Georgia;" edge="1" parent="BgcQaN8wiSriz7WGM6qO-67">
          <mxGeometry width="50" height="50" relative="1" as="geometry">
            <mxPoint x="125" y="96" as="sourcePoint" />
            <mxPoint x="125" y="55" as="targetPoint" />
            <Array as="points">
              <mxPoint x="125" y="72" />
            </Array>
          </mxGeometry>
        </mxCell>
        <mxCell id="BgcQaN8wiSriz7WGM6qO-69" value="" style="endArrow=classic;startArrow=classic;html=1;rounded=0;fontFamily=Georgia;" edge="1" parent="BgcQaN8wiSriz7WGM6qO-67">
          <mxGeometry width="50" height="50" relative="1" as="geometry">
            <mxPoint x="125" y="-8" as="sourcePoint" />
            <mxPoint x="125" y="-49" as="targetPoint" />
          </mxGeometry>
        </mxCell>
        <mxCell id="BgcQaN8wiSriz7WGM6qO-70" value="Equal" style="text;html=1;strokeColor=none;fillColor=none;align=center;verticalAlign=middle;whiteSpace=wrap;rounded=0;fontFamily=Georgia;fontStyle=1;rotation=-90;" vertex="1" parent="BgcQaN8wiSriz7WGM6qO-67">
          <mxGeometry x="104" y="7" width="41.666666666666664" height="30" as="geometry" />
        </mxCell>
        <mxCell id="BgcQaN8wiSriz7WGM6qO-71" value="STUDY" style="text;strokeColor=none;fillColor=none;html=1;fontSize=12;fontStyle=1;verticalAlign=middle;align=center;fontFamily=Georgia;rotation=-90;" vertex="1" parent="BgcQaN8wiSriz7WGM6qO-67">
          <mxGeometry x="101" y="101" width="48.61111111111111" height="40" as="geometry" />
        </mxCell>
        <mxCell id="BgcQaN8wiSriz7WGM6qO-72" value="MUSIC" style="text;strokeColor=none;fillColor=none;html=1;fontSize=12;fontStyle=1;verticalAlign=middle;align=center;fontFamily=Georgia;rotation=-90;" vertex="1" parent="BgcQaN8wiSriz7WGM6qO-67">
          <mxGeometry x="97" y="-95" width="55.55555555555556" height="35" as="geometry" />
        </mxCell>
        <mxCell id="BgcQaN8wiSriz7WGM6qO-73" value="Duration" style="text;strokeColor=none;fillColor=none;html=1;fontSize=24;fontStyle=1;verticalAlign=middle;align=center;fontFamily=Times New Roman;" vertex="1" parent="1">
          <mxGeometry x="789" y="602" width="100" height="40" as="geometry" />
        </mxCell>
        <mxCell id="BgcQaN8wiSriz7WGM6qO-74" value="F0" style="text;strokeColor=none;fillColor=none;html=1;fontSize=24;fontStyle=1;verticalAlign=middle;align=center;fontFamily=Times New Roman;rotation=-90;" vertex="1" parent="1">
          <mxGeometry x="594" y="422" width="100" height="40" as="geometry" />
        </mxCell>
        <object label="" id="BgcQaN8wiSriz7WGM6qO-149">
          <mxCell style="shape=table;html=1;whiteSpace=wrap;startSize=0;container=1;collapsible=0;childLayout=tableLayout;flipH=0;flipV=0;movable=1;resizable=1;rotatable=1;deletable=1;editable=1;connectable=1;fontFamily=Georgia;swimlaneFillColor=none;" vertex="1" parent="1">
            <mxGeometry x="251" y="317" width="250" height="249.0000000000001" as="geometry" />
          </mxCell>
        </object>
        <mxCell id="BgcQaN8wiSriz7WGM6qO-150" value="" style="shape=tableRow;horizontal=0;startSize=0;swimlaneHead=0;swimlaneBody=0;top=0;left=0;bottom=0;right=0;collapsible=0;dropTarget=0;fillColor=none;points=[[0,0.5],[1,0.5]];portConstraint=eastwest;movable=1;resizable=1;rotatable=1;deletable=1;editable=1;connectable=1;fontFamily=Georgia;swimlaneFillColor=none;strokeColor=#CCCCCC;" vertex="1" parent="BgcQaN8wiSriz7WGM6qO-149">
          <mxGeometry width="250" height="35" as="geometry" />
        </mxCell>
        <mxCell id="BgcQaN8wiSriz7WGM6qO-151" style="shape=partialRectangle;html=1;whiteSpace=wrap;connectable=1;top=0;left=0;bottom=0;right=0;overflow=hidden;movable=1;resizable=1;rotatable=1;deletable=1;editable=1;fontFamily=Georgia;swimlaneFillColor=none;" vertex="1" parent="BgcQaN8wiSriz7WGM6qO-150">
          <mxGeometry width="35" height="35" as="geometry">
            <mxRectangle width="35" height="35" as="alternateBounds" />
          </mxGeometry>
        </mxCell>
        <mxCell id="BgcQaN8wiSriz7WGM6qO-152" style="shape=partialRectangle;html=1;whiteSpace=wrap;connectable=1;top=0;left=0;bottom=0;right=0;overflow=hidden;movable=1;resizable=1;rotatable=1;deletable=1;editable=1;fontFamily=Georgia;swimlaneFillColor=none;" vertex="1" parent="BgcQaN8wiSriz7WGM6qO-150">
          <mxGeometry x="35" width="37" height="35" as="geometry">
            <mxRectangle width="37" height="35" as="alternateBounds" />
          </mxGeometry>
        </mxCell>
        <mxCell id="BgcQaN8wiSriz7WGM6qO-153" style="shape=partialRectangle;html=1;whiteSpace=wrap;connectable=1;top=0;left=0;bottom=0;right=0;overflow=hidden;movable=1;resizable=1;rotatable=1;deletable=1;editable=1;fontFamily=Georgia;swimlaneFillColor=none;" vertex="1" parent="BgcQaN8wiSriz7WGM6qO-150">
          <mxGeometry x="72" width="35" height="35" as="geometry">
            <mxRectangle width="35" height="35" as="alternateBounds" />
          </mxGeometry>
        </mxCell>
        <mxCell id="BgcQaN8wiSriz7WGM6qO-154" value="" style="shape=partialRectangle;html=1;whiteSpace=wrap;connectable=1;top=0;left=0;bottom=0;right=0;overflow=hidden;movable=1;resizable=1;rotatable=1;deletable=1;editable=1;fontFamily=Georgia;swimlaneFillColor=none;" vertex="1" parent="BgcQaN8wiSriz7WGM6qO-150">
          <mxGeometry x="107" width="35" height="35" as="geometry">
            <mxRectangle width="35" height="35" as="alternateBounds" />
          </mxGeometry>
        </mxCell>
        <mxCell id="BgcQaN8wiSriz7WGM6qO-155" value="" style="shape=partialRectangle;html=1;whiteSpace=wrap;connectable=1;top=0;left=0;bottom=0;right=0;overflow=hidden;movable=1;resizable=1;rotatable=1;deletable=1;editable=1;fontFamily=Georgia;swimlaneFillColor=none;" vertex="1" parent="BgcQaN8wiSriz7WGM6qO-150">
          <mxGeometry x="142" width="36" height="35" as="geometry">
            <mxRectangle width="36" height="35" as="alternateBounds" />
          </mxGeometry>
        </mxCell>
        <mxCell id="BgcQaN8wiSriz7WGM6qO-156" style="shape=partialRectangle;html=1;whiteSpace=wrap;connectable=1;top=0;left=0;bottom=0;right=0;overflow=hidden;movable=1;resizable=1;rotatable=1;deletable=1;editable=1;fontFamily=Georgia;swimlaneFillColor=none;fillColor=#dae8fc;strokeColor=#6c8ebf;" vertex="1" parent="BgcQaN8wiSriz7WGM6qO-150">
          <mxGeometry x="178" width="37" height="35" as="geometry">
            <mxRectangle width="37" height="35" as="alternateBounds" />
          </mxGeometry>
        </mxCell>
        <mxCell id="BgcQaN8wiSriz7WGM6qO-157" value="" style="shape=partialRectangle;html=1;whiteSpace=wrap;connectable=1;top=0;left=0;bottom=0;right=0;overflow=hidden;movable=1;resizable=1;rotatable=1;deletable=1;editable=1;fontFamily=Georgia;swimlaneFillColor=none;" vertex="1" parent="BgcQaN8wiSriz7WGM6qO-150">
          <mxGeometry x="215" width="35" height="35" as="geometry">
            <mxRectangle width="35" height="35" as="alternateBounds" />
          </mxGeometry>
        </mxCell>
        <mxCell id="BgcQaN8wiSriz7WGM6qO-158" style="shape=tableRow;horizontal=0;startSize=0;swimlaneHead=0;swimlaneBody=0;top=0;left=0;bottom=0;right=0;collapsible=0;dropTarget=0;fillColor=none;points=[[0,0.5],[1,0.5]];portConstraint=eastwest;movable=1;resizable=1;rotatable=1;deletable=1;editable=1;connectable=1;fontFamily=Georgia;swimlaneFillColor=none;strokeColor=#CCCCCC;" vertex="1" parent="BgcQaN8wiSriz7WGM6qO-149">
          <mxGeometry y="35" width="250" height="35" as="geometry" />
        </mxCell>
        <mxCell id="BgcQaN8wiSriz7WGM6qO-159" style="shape=partialRectangle;html=1;whiteSpace=wrap;connectable=1;top=0;left=0;bottom=0;right=0;overflow=hidden;movable=1;resizable=1;rotatable=1;deletable=1;editable=1;fontFamily=Georgia;swimlaneFillColor=none;" vertex="1" parent="BgcQaN8wiSriz7WGM6qO-158">
          <mxGeometry width="35" height="35" as="geometry">
            <mxRectangle width="35" height="35" as="alternateBounds" />
          </mxGeometry>
        </mxCell>
        <mxCell id="BgcQaN8wiSriz7WGM6qO-160" style="shape=partialRectangle;html=1;whiteSpace=wrap;connectable=1;top=0;left=0;bottom=0;right=0;overflow=hidden;movable=1;resizable=1;rotatable=1;deletable=1;editable=1;fontFamily=Georgia;swimlaneFillColor=none;" vertex="1" parent="BgcQaN8wiSriz7WGM6qO-158">
          <mxGeometry x="35" width="37" height="35" as="geometry">
            <mxRectangle width="37" height="35" as="alternateBounds" />
          </mxGeometry>
        </mxCell>
        <mxCell id="BgcQaN8wiSriz7WGM6qO-161" style="shape=partialRectangle;html=1;whiteSpace=wrap;connectable=1;top=0;left=0;bottom=0;right=0;overflow=hidden;movable=1;resizable=1;rotatable=1;deletable=1;editable=1;fontFamily=Georgia;swimlaneFillColor=none;" vertex="1" parent="BgcQaN8wiSriz7WGM6qO-158">
          <mxGeometry x="72" width="35" height="35" as="geometry">
            <mxRectangle width="35" height="35" as="alternateBounds" />
          </mxGeometry>
        </mxCell>
        <mxCell id="BgcQaN8wiSriz7WGM6qO-162" style="shape=partialRectangle;html=1;whiteSpace=wrap;connectable=1;top=0;left=0;bottom=0;right=0;overflow=hidden;movable=1;resizable=1;rotatable=1;deletable=1;editable=1;fontFamily=Georgia;swimlaneFillColor=none;" vertex="1" parent="BgcQaN8wiSriz7WGM6qO-158">
          <mxGeometry x="107" width="35" height="35" as="geometry">
            <mxRectangle width="35" height="35" as="alternateBounds" />
          </mxGeometry>
        </mxCell>
        <mxCell id="BgcQaN8wiSriz7WGM6qO-163" style="shape=partialRectangle;html=1;whiteSpace=wrap;connectable=1;top=0;left=0;bottom=0;right=0;overflow=hidden;movable=1;resizable=1;rotatable=1;deletable=1;editable=1;fontFamily=Georgia;swimlaneFillColor=none;fillColor=#dae8fc;strokeColor=#6c8ebf;" vertex="1" parent="BgcQaN8wiSriz7WGM6qO-158">
          <mxGeometry x="142" width="36" height="35" as="geometry">
            <mxRectangle width="36" height="35" as="alternateBounds" />
          </mxGeometry>
        </mxCell>
        <mxCell id="BgcQaN8wiSriz7WGM6qO-164" style="shape=partialRectangle;html=1;whiteSpace=wrap;connectable=1;top=0;left=0;bottom=0;right=0;overflow=hidden;movable=1;resizable=1;rotatable=1;deletable=1;editable=1;fontFamily=Georgia;swimlaneFillColor=none;fillColor=#dae8fc;strokeColor=#6c8ebf;" vertex="1" parent="BgcQaN8wiSriz7WGM6qO-158">
          <mxGeometry x="178" width="37" height="35" as="geometry">
            <mxRectangle width="37" height="35" as="alternateBounds" />
          </mxGeometry>
        </mxCell>
        <mxCell id="BgcQaN8wiSriz7WGM6qO-165" style="shape=partialRectangle;html=1;whiteSpace=wrap;connectable=1;top=0;left=0;bottom=0;right=0;overflow=hidden;movable=1;resizable=1;rotatable=1;deletable=1;editable=1;fontFamily=Georgia;swimlaneFillColor=none;fillColor=#dae8fc;strokeColor=#6c8ebf;" vertex="1" parent="BgcQaN8wiSriz7WGM6qO-158">
          <mxGeometry x="215" width="35" height="35" as="geometry">
            <mxRectangle width="35" height="35" as="alternateBounds" />
          </mxGeometry>
        </mxCell>
        <mxCell id="BgcQaN8wiSriz7WGM6qO-166" value="" style="shape=tableRow;horizontal=0;startSize=0;swimlaneHead=0;swimlaneBody=0;top=0;left=0;bottom=0;right=0;collapsible=0;dropTarget=0;fillColor=none;points=[[0,0.5],[1,0.5]];portConstraint=eastwest;movable=1;resizable=1;rotatable=1;deletable=1;editable=1;connectable=1;fontFamily=Georgia;swimlaneFillColor=none;strokeColor=#CCCCCC;" vertex="1" parent="BgcQaN8wiSriz7WGM6qO-149">
          <mxGeometry y="70" width="250" height="35" as="geometry" />
        </mxCell>
        <mxCell id="BgcQaN8wiSriz7WGM6qO-167" style="shape=partialRectangle;html=1;whiteSpace=wrap;connectable=1;top=0;left=0;bottom=0;right=0;overflow=hidden;movable=1;resizable=1;rotatable=1;deletable=1;editable=1;fontFamily=Georgia;swimlaneFillColor=none;" vertex="1" parent="BgcQaN8wiSriz7WGM6qO-166">
          <mxGeometry width="35" height="35" as="geometry">
            <mxRectangle width="35" height="35" as="alternateBounds" />
          </mxGeometry>
        </mxCell>
        <mxCell id="BgcQaN8wiSriz7WGM6qO-168" style="shape=partialRectangle;html=1;whiteSpace=wrap;connectable=1;top=0;left=0;bottom=0;right=0;overflow=hidden;movable=1;resizable=1;rotatable=1;deletable=1;editable=1;fontFamily=Georgia;swimlaneFillColor=none;" vertex="1" parent="BgcQaN8wiSriz7WGM6qO-166">
          <mxGeometry x="35" width="37" height="35" as="geometry">
            <mxRectangle width="37" height="35" as="alternateBounds" />
          </mxGeometry>
        </mxCell>
        <mxCell id="BgcQaN8wiSriz7WGM6qO-169" style="shape=partialRectangle;html=1;whiteSpace=wrap;connectable=1;top=0;left=0;bottom=0;right=0;overflow=hidden;movable=1;resizable=1;rotatable=1;deletable=1;editable=1;fontFamily=Georgia;swimlaneFillColor=none;" vertex="1" parent="BgcQaN8wiSriz7WGM6qO-166">
          <mxGeometry x="72" width="35" height="35" as="geometry">
            <mxRectangle width="35" height="35" as="alternateBounds" />
          </mxGeometry>
        </mxCell>
        <mxCell id="BgcQaN8wiSriz7WGM6qO-170" value="" style="shape=partialRectangle;html=1;whiteSpace=wrap;connectable=1;top=0;left=0;bottom=0;right=0;overflow=hidden;movable=1;resizable=1;rotatable=1;deletable=1;editable=1;fontFamily=Georgia;swimlaneFillColor=none;" vertex="1" parent="BgcQaN8wiSriz7WGM6qO-166">
          <mxGeometry x="107" width="35" height="35" as="geometry">
            <mxRectangle width="35" height="35" as="alternateBounds" />
          </mxGeometry>
        </mxCell>
        <mxCell id="BgcQaN8wiSriz7WGM6qO-171" value="" style="shape=partialRectangle;html=1;whiteSpace=wrap;connectable=1;top=0;left=0;bottom=0;right=0;overflow=hidden;movable=1;resizable=1;rotatable=1;deletable=1;editable=1;fontFamily=Georgia;swimlaneFillColor=none;" vertex="1" parent="BgcQaN8wiSriz7WGM6qO-166">
          <mxGeometry x="142" width="36" height="35" as="geometry">
            <mxRectangle width="36" height="35" as="alternateBounds" />
          </mxGeometry>
        </mxCell>
        <mxCell id="BgcQaN8wiSriz7WGM6qO-172" style="shape=partialRectangle;html=1;whiteSpace=wrap;connectable=1;top=0;left=0;bottom=0;right=0;overflow=hidden;movable=1;resizable=1;rotatable=1;deletable=1;editable=1;fontFamily=Georgia;swimlaneFillColor=none;fillColor=#dae8fc;strokeColor=#6c8ebf;" vertex="1" parent="BgcQaN8wiSriz7WGM6qO-166">
          <mxGeometry x="178" width="37" height="35" as="geometry">
            <mxRectangle width="37" height="35" as="alternateBounds" />
          </mxGeometry>
        </mxCell>
        <mxCell id="BgcQaN8wiSriz7WGM6qO-173" value="" style="shape=partialRectangle;html=1;whiteSpace=wrap;connectable=1;top=0;left=0;bottom=0;right=0;overflow=hidden;movable=1;resizable=1;rotatable=1;deletable=1;editable=1;fontFamily=Georgia;swimlaneFillColor=none;" vertex="1" parent="BgcQaN8wiSriz7WGM6qO-166">
          <mxGeometry x="215" width="35" height="35" as="geometry">
            <mxRectangle width="35" height="35" as="alternateBounds" />
          </mxGeometry>
        </mxCell>
        <mxCell id="BgcQaN8wiSriz7WGM6qO-174" style="shape=tableRow;horizontal=0;startSize=0;swimlaneHead=0;swimlaneBody=0;top=0;left=0;bottom=0;right=0;collapsible=0;dropTarget=0;fillColor=none;points=[[0,0.5],[1,0.5]];portConstraint=eastwest;movable=1;resizable=1;rotatable=1;deletable=1;editable=1;connectable=1;fontFamily=Georgia;swimlaneFillColor=none;strokeColor=#CCCCCC;" vertex="1" parent="BgcQaN8wiSriz7WGM6qO-149">
          <mxGeometry y="105" width="250" height="37" as="geometry" />
        </mxCell>
        <mxCell id="BgcQaN8wiSriz7WGM6qO-175" style="shape=partialRectangle;html=1;whiteSpace=wrap;connectable=1;top=0;left=0;bottom=0;right=0;overflow=hidden;movable=1;resizable=1;rotatable=1;deletable=1;editable=1;fontFamily=Georgia;swimlaneFillColor=none;" vertex="1" parent="BgcQaN8wiSriz7WGM6qO-174">
          <mxGeometry width="35" height="37" as="geometry">
            <mxRectangle width="35" height="37" as="alternateBounds" />
          </mxGeometry>
        </mxCell>
        <mxCell id="BgcQaN8wiSriz7WGM6qO-176" style="shape=partialRectangle;html=1;whiteSpace=wrap;connectable=1;top=0;left=0;bottom=0;right=0;overflow=hidden;movable=1;resizable=1;rotatable=1;deletable=1;editable=1;fontFamily=Georgia;swimlaneFillColor=none;" vertex="1" parent="BgcQaN8wiSriz7WGM6qO-174">
          <mxGeometry x="35" width="37" height="37" as="geometry">
            <mxRectangle width="37" height="37" as="alternateBounds" />
          </mxGeometry>
        </mxCell>
        <mxCell id="BgcQaN8wiSriz7WGM6qO-177" style="shape=partialRectangle;html=1;whiteSpace=wrap;connectable=1;top=0;left=0;bottom=0;right=0;overflow=hidden;movable=1;resizable=1;rotatable=1;deletable=1;editable=1;fontFamily=Georgia;swimlaneFillColor=none;fillColor=#FF8000;" vertex="1" parent="BgcQaN8wiSriz7WGM6qO-174">
          <mxGeometry x="72" width="35" height="37" as="geometry">
            <mxRectangle width="35" height="37" as="alternateBounds" />
          </mxGeometry>
        </mxCell>
        <mxCell id="BgcQaN8wiSriz7WGM6qO-178" style="shape=partialRectangle;html=1;whiteSpace=wrap;connectable=1;top=0;left=0;bottom=0;right=0;overflow=hidden;movable=1;resizable=1;rotatable=1;deletable=1;editable=1;fontFamily=Georgia;swimlaneFillColor=none;" vertex="1" parent="BgcQaN8wiSriz7WGM6qO-174">
          <mxGeometry x="107" width="35" height="37" as="geometry">
            <mxRectangle width="35" height="37" as="alternateBounds" />
          </mxGeometry>
        </mxCell>
        <mxCell id="BgcQaN8wiSriz7WGM6qO-179" style="shape=partialRectangle;html=1;whiteSpace=wrap;connectable=1;top=0;left=0;bottom=0;right=0;overflow=hidden;movable=1;resizable=1;rotatable=1;deletable=1;editable=1;fontFamily=Georgia;swimlaneFillColor=none;fillColor=#FF8000;" vertex="1" parent="BgcQaN8wiSriz7WGM6qO-174">
          <mxGeometry x="142" width="36" height="37" as="geometry">
            <mxRectangle width="36" height="37" as="alternateBounds" />
          </mxGeometry>
        </mxCell>
        <mxCell id="BgcQaN8wiSriz7WGM6qO-180" style="shape=partialRectangle;html=1;whiteSpace=wrap;connectable=1;top=0;left=0;bottom=0;right=0;overflow=hidden;pointerEvents=1;movable=1;resizable=1;rotatable=1;deletable=1;editable=1;fontFamily=Georgia;swimlaneFillColor=none;" vertex="1" parent="BgcQaN8wiSriz7WGM6qO-174">
          <mxGeometry x="178" width="37" height="37" as="geometry">
            <mxRectangle width="37" height="37" as="alternateBounds" />
          </mxGeometry>
        </mxCell>
        <mxCell id="BgcQaN8wiSriz7WGM6qO-181" style="shape=partialRectangle;html=1;whiteSpace=wrap;connectable=1;top=0;left=0;bottom=0;right=0;overflow=hidden;pointerEvents=1;movable=1;resizable=1;rotatable=1;deletable=1;editable=1;fontFamily=Georgia;swimlaneFillColor=none;" vertex="1" parent="BgcQaN8wiSriz7WGM6qO-174">
          <mxGeometry x="215" width="35" height="37" as="geometry">
            <mxRectangle width="35" height="37" as="alternateBounds" />
          </mxGeometry>
        </mxCell>
        <mxCell id="BgcQaN8wiSriz7WGM6qO-182" style="shape=tableRow;horizontal=0;startSize=0;swimlaneHead=0;swimlaneBody=0;top=0;left=0;bottom=0;right=0;collapsible=0;dropTarget=0;fillColor=none;points=[[0,0.5],[1,0.5]];portConstraint=eastwest;movable=1;resizable=1;rotatable=1;deletable=1;editable=1;connectable=1;fontFamily=Georgia;swimlaneFillColor=none;strokeColor=#CCCCCC;" vertex="1" parent="BgcQaN8wiSriz7WGM6qO-149">
          <mxGeometry y="142" width="250" height="36" as="geometry" />
        </mxCell>
        <mxCell id="BgcQaN8wiSriz7WGM6qO-183" style="shape=partialRectangle;html=1;whiteSpace=wrap;connectable=1;top=0;left=0;bottom=0;right=0;overflow=hidden;movable=1;resizable=1;rotatable=1;deletable=1;editable=1;fontFamily=Georgia;swimlaneFillColor=none;" vertex="1" parent="BgcQaN8wiSriz7WGM6qO-182">
          <mxGeometry width="35" height="36" as="geometry">
            <mxRectangle width="35" height="36" as="alternateBounds" />
          </mxGeometry>
        </mxCell>
        <mxCell id="BgcQaN8wiSriz7WGM6qO-184" style="shape=partialRectangle;html=1;whiteSpace=wrap;connectable=1;top=0;left=0;bottom=0;right=0;overflow=hidden;movable=1;resizable=1;rotatable=1;deletable=1;editable=1;fontFamily=Georgia;swimlaneFillColor=none;fillColor=#dae8fc;strokeColor=#6c8ebf;" vertex="1" parent="BgcQaN8wiSriz7WGM6qO-182">
          <mxGeometry x="35" width="37" height="36" as="geometry">
            <mxRectangle width="37" height="36" as="alternateBounds" />
          </mxGeometry>
        </mxCell>
        <mxCell id="BgcQaN8wiSriz7WGM6qO-185" style="shape=partialRectangle;html=1;whiteSpace=wrap;connectable=1;top=0;left=0;bottom=0;right=0;overflow=hidden;movable=1;resizable=1;rotatable=1;deletable=1;editable=1;fontFamily=Georgia;swimlaneFillColor=none;" vertex="1" parent="BgcQaN8wiSriz7WGM6qO-182">
          <mxGeometry x="72" width="35" height="36" as="geometry">
            <mxRectangle width="35" height="36" as="alternateBounds" />
          </mxGeometry>
        </mxCell>
        <mxCell id="BgcQaN8wiSriz7WGM6qO-186" style="shape=partialRectangle;html=1;whiteSpace=wrap;connectable=1;top=0;left=0;bottom=0;right=0;overflow=hidden;movable=1;resizable=1;rotatable=1;deletable=1;editable=1;fontFamily=Georgia;swimlaneFillColor=none;" vertex="1" parent="BgcQaN8wiSriz7WGM6qO-182">
          <mxGeometry x="107" width="35" height="36" as="geometry">
            <mxRectangle width="35" height="36" as="alternateBounds" />
          </mxGeometry>
        </mxCell>
        <mxCell id="BgcQaN8wiSriz7WGM6qO-187" style="shape=partialRectangle;html=1;whiteSpace=wrap;connectable=1;top=0;left=0;bottom=0;right=0;overflow=hidden;movable=1;resizable=1;rotatable=1;deletable=1;editable=1;fontFamily=Georgia;swimlaneFillColor=none;" vertex="1" parent="BgcQaN8wiSriz7WGM6qO-182">
          <mxGeometry x="142" width="36" height="36" as="geometry">
            <mxRectangle width="36" height="36" as="alternateBounds" />
          </mxGeometry>
        </mxCell>
        <mxCell id="BgcQaN8wiSriz7WGM6qO-188" style="shape=partialRectangle;html=1;whiteSpace=wrap;connectable=1;top=0;left=0;bottom=0;right=0;overflow=hidden;pointerEvents=1;movable=1;resizable=1;rotatable=1;deletable=1;editable=1;fontFamily=Georgia;swimlaneFillColor=none;" vertex="1" parent="BgcQaN8wiSriz7WGM6qO-182">
          <mxGeometry x="178" width="37" height="36" as="geometry">
            <mxRectangle width="37" height="36" as="alternateBounds" />
          </mxGeometry>
        </mxCell>
        <mxCell id="BgcQaN8wiSriz7WGM6qO-189" style="shape=partialRectangle;html=1;whiteSpace=wrap;connectable=1;top=0;left=0;bottom=0;right=0;overflow=hidden;pointerEvents=1;movable=1;resizable=1;rotatable=1;deletable=1;editable=1;fontFamily=Georgia;swimlaneFillColor=none;" vertex="1" parent="BgcQaN8wiSriz7WGM6qO-182">
          <mxGeometry x="215" width="35" height="36" as="geometry">
            <mxRectangle width="35" height="36" as="alternateBounds" />
          </mxGeometry>
        </mxCell>
        <mxCell id="BgcQaN8wiSriz7WGM6qO-190" value="" style="shape=tableRow;horizontal=0;startSize=0;swimlaneHead=0;swimlaneBody=0;top=0;left=0;bottom=0;right=0;collapsible=0;dropTarget=0;fillColor=none;points=[[0,0.5],[1,0.5]];portConstraint=eastwest;movable=1;resizable=1;rotatable=1;deletable=1;editable=1;connectable=1;fontFamily=Georgia;swimlaneFillColor=none;strokeColor=#CCCCCC;" vertex="1" parent="BgcQaN8wiSriz7WGM6qO-149">
          <mxGeometry y="178" width="250" height="36" as="geometry" />
        </mxCell>
        <mxCell id="BgcQaN8wiSriz7WGM6qO-191" style="shape=partialRectangle;html=1;whiteSpace=wrap;connectable=1;top=0;left=0;bottom=0;right=0;overflow=hidden;movable=1;resizable=1;rotatable=1;deletable=1;editable=1;fontFamily=Georgia;swimlaneFillColor=none;fillColor=#dae8fc;strokeColor=#6c8ebf;" vertex="1" parent="BgcQaN8wiSriz7WGM6qO-190">
          <mxGeometry width="35" height="36" as="geometry">
            <mxRectangle width="35" height="36" as="alternateBounds" />
          </mxGeometry>
        </mxCell>
        <mxCell id="BgcQaN8wiSriz7WGM6qO-192" style="shape=partialRectangle;html=1;whiteSpace=wrap;connectable=1;top=0;left=0;bottom=0;right=0;overflow=hidden;movable=1;resizable=1;rotatable=1;deletable=1;editable=1;fontFamily=Georgia;swimlaneFillColor=none;fillColor=#dae8fc;strokeColor=#6c8ebf;" vertex="1" parent="BgcQaN8wiSriz7WGM6qO-190">
          <mxGeometry x="35" width="37" height="36" as="geometry">
            <mxRectangle width="37" height="36" as="alternateBounds" />
          </mxGeometry>
        </mxCell>
        <mxCell id="BgcQaN8wiSriz7WGM6qO-193" style="shape=partialRectangle;html=1;whiteSpace=wrap;connectable=1;top=0;left=0;bottom=0;right=0;overflow=hidden;movable=1;resizable=1;rotatable=1;deletable=1;editable=1;fontFamily=Georgia;swimlaneFillColor=none;fillColor=#dae8fc;strokeColor=#6c8ebf;" vertex="1" parent="BgcQaN8wiSriz7WGM6qO-190">
          <mxGeometry x="72" width="35" height="36" as="geometry">
            <mxRectangle width="35" height="36" as="alternateBounds" />
          </mxGeometry>
        </mxCell>
        <mxCell id="BgcQaN8wiSriz7WGM6qO-194" value="" style="shape=partialRectangle;html=1;whiteSpace=wrap;connectable=1;top=0;left=0;bottom=0;right=0;overflow=hidden;movable=1;resizable=1;rotatable=1;deletable=1;editable=1;fontFamily=Georgia;swimlaneFillColor=none;" vertex="1" parent="BgcQaN8wiSriz7WGM6qO-190">
          <mxGeometry x="107" width="35" height="36" as="geometry">
            <mxRectangle width="35" height="36" as="alternateBounds" />
          </mxGeometry>
        </mxCell>
        <mxCell id="BgcQaN8wiSriz7WGM6qO-195" value="" style="shape=partialRectangle;html=1;whiteSpace=wrap;connectable=1;top=0;left=0;bottom=0;right=0;overflow=hidden;movable=1;resizable=1;rotatable=1;deletable=1;editable=1;fontFamily=Georgia;swimlaneFillColor=none;" vertex="1" parent="BgcQaN8wiSriz7WGM6qO-190">
          <mxGeometry x="142" width="36" height="36" as="geometry">
            <mxRectangle width="36" height="36" as="alternateBounds" />
          </mxGeometry>
        </mxCell>
        <mxCell id="BgcQaN8wiSriz7WGM6qO-196" style="shape=partialRectangle;html=1;whiteSpace=wrap;connectable=1;top=0;left=0;bottom=0;right=0;overflow=hidden;pointerEvents=1;movable=1;resizable=1;rotatable=1;deletable=1;editable=1;fontFamily=Georgia;swimlaneFillColor=none;" vertex="1" parent="BgcQaN8wiSriz7WGM6qO-190">
          <mxGeometry x="178" width="37" height="36" as="geometry">
            <mxRectangle width="37" height="36" as="alternateBounds" />
          </mxGeometry>
        </mxCell>
        <mxCell id="BgcQaN8wiSriz7WGM6qO-197" value="" style="shape=partialRectangle;html=1;whiteSpace=wrap;connectable=1;top=0;left=0;bottom=0;right=0;overflow=hidden;pointerEvents=1;movable=1;resizable=1;rotatable=1;deletable=1;editable=1;fontFamily=Georgia;swimlaneFillColor=none;" vertex="1" parent="BgcQaN8wiSriz7WGM6qO-190">
          <mxGeometry x="215" width="35" height="36" as="geometry">
            <mxRectangle width="35" height="36" as="alternateBounds" />
          </mxGeometry>
        </mxCell>
        <mxCell id="BgcQaN8wiSriz7WGM6qO-198" style="shape=tableRow;horizontal=0;startSize=0;swimlaneHead=0;swimlaneBody=0;top=0;left=0;bottom=0;right=0;collapsible=0;dropTarget=0;fillColor=none;points=[[0,0.5],[1,0.5]];portConstraint=eastwest;movable=1;resizable=1;rotatable=1;deletable=1;editable=1;connectable=1;fontFamily=Georgia;swimlaneFillColor=none;strokeColor=#CCCCCC;" vertex="1" parent="BgcQaN8wiSriz7WGM6qO-149">
          <mxGeometry y="214" width="250" height="35" as="geometry" />
        </mxCell>
        <mxCell id="BgcQaN8wiSriz7WGM6qO-199" style="shape=partialRectangle;html=1;whiteSpace=wrap;connectable=1;top=0;left=0;bottom=0;right=0;overflow=hidden;movable=1;resizable=1;rotatable=1;deletable=1;editable=1;fontFamily=Georgia;swimlaneFillColor=none;" vertex="1" parent="BgcQaN8wiSriz7WGM6qO-198">
          <mxGeometry width="35" height="35" as="geometry">
            <mxRectangle width="35" height="35" as="alternateBounds" />
          </mxGeometry>
        </mxCell>
        <mxCell id="BgcQaN8wiSriz7WGM6qO-200" style="shape=partialRectangle;html=1;whiteSpace=wrap;connectable=1;top=0;left=0;bottom=0;right=0;overflow=hidden;movable=1;resizable=1;rotatable=1;deletable=1;editable=1;fontFamily=Georgia;swimlaneFillColor=none;fillColor=#dae8fc;strokeColor=#6c8ebf;" vertex="1" parent="BgcQaN8wiSriz7WGM6qO-198">
          <mxGeometry x="35" width="37" height="35" as="geometry">
            <mxRectangle width="37" height="35" as="alternateBounds" />
          </mxGeometry>
        </mxCell>
        <mxCell id="BgcQaN8wiSriz7WGM6qO-201" style="shape=partialRectangle;html=1;whiteSpace=wrap;connectable=1;top=0;left=0;bottom=0;right=0;overflow=hidden;movable=1;resizable=1;rotatable=1;deletable=1;editable=1;fontFamily=Georgia;swimlaneFillColor=none;" vertex="1" parent="BgcQaN8wiSriz7WGM6qO-198">
          <mxGeometry x="72" width="35" height="35" as="geometry">
            <mxRectangle width="35" height="35" as="alternateBounds" />
          </mxGeometry>
        </mxCell>
        <mxCell id="BgcQaN8wiSriz7WGM6qO-202" style="shape=partialRectangle;html=1;whiteSpace=wrap;connectable=1;top=0;left=0;bottom=0;right=0;overflow=hidden;movable=1;resizable=1;rotatable=1;deletable=1;editable=1;fontFamily=Georgia;swimlaneFillColor=none;" vertex="1" parent="BgcQaN8wiSriz7WGM6qO-198">
          <mxGeometry x="107" width="35" height="35" as="geometry">
            <mxRectangle width="35" height="35" as="alternateBounds" />
          </mxGeometry>
        </mxCell>
        <mxCell id="BgcQaN8wiSriz7WGM6qO-203" style="shape=partialRectangle;html=1;whiteSpace=wrap;connectable=1;top=0;left=0;bottom=0;right=0;overflow=hidden;movable=1;resizable=1;rotatable=1;deletable=1;editable=1;fontFamily=Georgia;swimlaneFillColor=none;" vertex="1" parent="BgcQaN8wiSriz7WGM6qO-198">
          <mxGeometry x="142" width="36" height="35" as="geometry">
            <mxRectangle width="36" height="35" as="alternateBounds" />
          </mxGeometry>
        </mxCell>
        <mxCell id="BgcQaN8wiSriz7WGM6qO-204" style="shape=partialRectangle;html=1;whiteSpace=wrap;connectable=1;top=0;left=0;bottom=0;right=0;overflow=hidden;pointerEvents=1;movable=1;resizable=1;rotatable=1;deletable=1;editable=1;fontFamily=Georgia;swimlaneFillColor=none;" vertex="1" parent="BgcQaN8wiSriz7WGM6qO-198">
          <mxGeometry x="178" width="37" height="35" as="geometry">
            <mxRectangle width="37" height="35" as="alternateBounds" />
          </mxGeometry>
        </mxCell>
        <mxCell id="BgcQaN8wiSriz7WGM6qO-205" style="shape=partialRectangle;html=1;whiteSpace=wrap;connectable=1;top=0;left=0;bottom=0;right=0;overflow=hidden;pointerEvents=1;movable=1;resizable=1;rotatable=1;deletable=1;editable=1;fontFamily=Georgia;swimlaneFillColor=none;" vertex="1" parent="BgcQaN8wiSriz7WGM6qO-198">
          <mxGeometry x="215" width="35" height="35" as="geometry">
            <mxRectangle width="35" height="35" as="alternateBounds" />
          </mxGeometry>
        </mxCell>
        <mxCell id="BgcQaN8wiSriz7WGM6qO-206" value="&lt;span style=&quot;font-weight: 400;&quot;&gt;&quot;&lt;/span&gt;STUDY&lt;br&gt;&lt;span style=&quot;font-weight: normal;&quot;&gt;&amp;nbsp; &amp;nbsp;music&quot;&lt;/span&gt;" style="text;strokeColor=none;fillColor=none;html=1;fontSize=24;fontStyle=1;verticalAlign=middle;align=center;fontFamily=Georgia;" vertex="1" parent="1">
          <mxGeometry x="251" y="487" width="110" height="50" as="geometry" />
        </mxCell>
        <mxCell id="BgcQaN8wiSriz7WGM6qO-207" value="&lt;span style=&quot;font-weight: 400;&quot;&gt;&quot;study&lt;/span&gt;&lt;br&gt;&lt;span style=&quot;font-weight: normal;&quot;&gt;&amp;nbsp; &amp;nbsp;&lt;/span&gt;MUSIC&lt;span style=&quot;font-weight: normal;&quot;&gt;&quot;&lt;/span&gt;" style="text;strokeColor=none;fillColor=none;html=1;fontSize=24;fontStyle=1;verticalAlign=middle;align=center;fontFamily=Georgia;" vertex="1" parent="1">
          <mxGeometry x="391" y="347" width="110" height="50" as="geometry" />
        </mxCell>
        <mxCell id="BgcQaN8wiSriz7WGM6qO-208" value="" style="group" vertex="1" connectable="0" parent="1">
          <mxGeometry x="251" y="572" width="250" height="40" as="geometry" />
        </mxCell>
        <mxCell id="BgcQaN8wiSriz7WGM6qO-209" value="" style="endArrow=classic;startArrow=classic;html=1;rounded=0;fontFamily=Georgia;" edge="1" parent="BgcQaN8wiSriz7WGM6qO-208">
          <mxGeometry width="50" height="50" relative="1" as="geometry">
            <mxPoint x="48.61111111111111" y="19.58000000000004" as="sourcePoint" />
            <mxPoint x="90.27777777777777" y="19.58000000000004" as="targetPoint" />
            <Array as="points">
              <mxPoint x="72.91666666666666" y="19.58000000000004" />
            </Array>
          </mxGeometry>
        </mxCell>
        <mxCell id="BgcQaN8wiSriz7WGM6qO-210" value="" style="endArrow=classic;startArrow=classic;html=1;rounded=0;fontFamily=Georgia;" edge="1" parent="BgcQaN8wiSriz7WGM6qO-208">
          <mxGeometry width="50" height="50" relative="1" as="geometry">
            <mxPoint x="152.77777777777777" y="19.58000000000004" as="sourcePoint" />
            <mxPoint x="194.44444444444443" y="19.58000000000004" as="targetPoint" />
          </mxGeometry>
        </mxCell>
        <mxCell id="BgcQaN8wiSriz7WGM6qO-211" value="Equal" style="text;html=1;strokeColor=none;fillColor=none;align=center;verticalAlign=middle;whiteSpace=wrap;rounded=0;fontFamily=Georgia;fontStyle=1" vertex="1" parent="BgcQaN8wiSriz7WGM6qO-208">
          <mxGeometry x="102.08333333333333" y="5" width="41.666666666666664" height="30" as="geometry" />
        </mxCell>
        <mxCell id="BgcQaN8wiSriz7WGM6qO-212" value="STUDY" style="text;strokeColor=none;fillColor=none;html=1;fontSize=12;fontStyle=1;verticalAlign=middle;align=center;fontFamily=Georgia;" vertex="1" parent="BgcQaN8wiSriz7WGM6qO-208">
          <mxGeometry width="48.61111111111111" height="40" as="geometry" />
        </mxCell>
        <mxCell id="BgcQaN8wiSriz7WGM6qO-213" value="MUSIC" style="text;strokeColor=none;fillColor=none;html=1;fontSize=12;fontStyle=1;verticalAlign=middle;align=center;fontFamily=Georgia;" vertex="1" parent="BgcQaN8wiSriz7WGM6qO-208">
          <mxGeometry x="194.44444444444443" y="2.5" width="55.55555555555556" height="35" as="geometry" />
        </mxCell>
        <mxCell id="BgcQaN8wiSriz7WGM6qO-214" value="" style="group;rotation=-90;" vertex="1" connectable="0" parent="1">
          <mxGeometry x="91" y="421.5" width="250" height="40" as="geometry" />
        </mxCell>
        <mxCell id="BgcQaN8wiSriz7WGM6qO-215" value="" style="endArrow=classic;startArrow=classic;html=1;rounded=0;fontFamily=Georgia;" edge="1" parent="BgcQaN8wiSriz7WGM6qO-214">
          <mxGeometry width="50" height="50" relative="1" as="geometry">
            <mxPoint x="125" y="96" as="sourcePoint" />
            <mxPoint x="125" y="55" as="targetPoint" />
            <Array as="points">
              <mxPoint x="125" y="72" />
            </Array>
          </mxGeometry>
        </mxCell>
        <mxCell id="BgcQaN8wiSriz7WGM6qO-216" value="" style="endArrow=classic;startArrow=classic;html=1;rounded=0;fontFamily=Georgia;" edge="1" parent="BgcQaN8wiSriz7WGM6qO-214">
          <mxGeometry width="50" height="50" relative="1" as="geometry">
            <mxPoint x="125" y="-8" as="sourcePoint" />
            <mxPoint x="125" y="-49" as="targetPoint" />
          </mxGeometry>
        </mxCell>
        <mxCell id="BgcQaN8wiSriz7WGM6qO-217" value="Equal" style="text;html=1;strokeColor=none;fillColor=none;align=center;verticalAlign=middle;whiteSpace=wrap;rounded=0;fontFamily=Georgia;fontStyle=1;rotation=-90;" vertex="1" parent="BgcQaN8wiSriz7WGM6qO-214">
          <mxGeometry x="104" y="7" width="41.666666666666664" height="30" as="geometry" />
        </mxCell>
        <mxCell id="BgcQaN8wiSriz7WGM6qO-218" value="STUDY" style="text;strokeColor=none;fillColor=none;html=1;fontSize=12;fontStyle=1;verticalAlign=middle;align=center;fontFamily=Georgia;rotation=-90;" vertex="1" parent="BgcQaN8wiSriz7WGM6qO-214">
          <mxGeometry x="101" y="101" width="48.61111111111111" height="40" as="geometry" />
        </mxCell>
        <mxCell id="BgcQaN8wiSriz7WGM6qO-219" value="MUSIC" style="text;strokeColor=none;fillColor=none;html=1;fontSize=12;fontStyle=1;verticalAlign=middle;align=center;fontFamily=Georgia;rotation=-90;" vertex="1" parent="BgcQaN8wiSriz7WGM6qO-214">
          <mxGeometry x="97" y="-95" width="55.55555555555556" height="35" as="geometry" />
        </mxCell>
        <mxCell id="BgcQaN8wiSriz7WGM6qO-220" value="F0" style="text;strokeColor=none;fillColor=none;html=1;fontSize=24;fontStyle=1;verticalAlign=middle;align=center;fontFamily=Times New Roman;rotation=-90;" vertex="1" parent="1">
          <mxGeometry x="124" y="428" width="100" height="40" as="geometry" />
        </mxCell>
        <mxCell id="BgcQaN8wiSriz7WGM6qO-221" value="&lt;font style=&quot;font-size: 24px;&quot;&gt;Auditory Stimuli:&lt;/font&gt;" style="text;html=1;strokeColor=none;fillColor=none;align=center;verticalAlign=middle;whiteSpace=wrap;rounded=0;" vertex="1" parent="1">
          <mxGeometry x="-294" y="679" width="221" height="30" as="geometry" />
        </mxCell>
        <mxCell id="BgcQaN8wiSriz7WGM6qO-222" value="&lt;font style=&quot;font-size: 24px;&quot;&gt;Task:&lt;/font&gt;" style="text;html=1;strokeColor=none;fillColor=none;align=center;verticalAlign=middle;whiteSpace=wrap;rounded=0;" vertex="1" parent="1">
          <mxGeometry x="-308" y="198" width="221" height="30" as="geometry" />
        </mxCell>
        <mxCell id="BgcQaN8wiSriz7WGM6qO-223" value="&lt;font style=&quot;font-size: 24px;&quot;&gt;Baseline&lt;/font&gt;" style="text;html=1;strokeColor=none;fillColor=none;align=center;verticalAlign=middle;whiteSpace=wrap;rounded=0;" vertex="1" parent="1">
          <mxGeometry x="-177" y="245" width="221" height="30" as="geometry" />
        </mxCell>
        <mxCell id="BgcQaN8wiSriz7WGM6qO-224" value="&lt;font style=&quot;font-size: 24px;&quot;&gt;Canonical&lt;/font&gt;" style="text;html=1;strokeColor=none;fillColor=none;align=center;verticalAlign=middle;whiteSpace=wrap;rounded=0;" vertex="1" parent="1">
          <mxGeometry x="245" y="245" width="221" height="30" as="geometry" />
        </mxCell>
        <mxCell id="BgcQaN8wiSriz7WGM6qO-225" value="&lt;span style=&quot;font-size: 24px;&quot;&gt;Reversed&lt;/span&gt;" style="text;html=1;strokeColor=none;fillColor=none;align=center;verticalAlign=middle;whiteSpace=wrap;rounded=0;" vertex="1" parent="1">
          <mxGeometry x="728.5" y="245" width="221" height="30" as="geometry" />
        </mxCell>
        <mxCell id="BgcQaN8wiSriz7WGM6qO-226" value="" style="shape=image;verticalLabelPosition=bottom;labelBackgroundColor=default;verticalAlign=top;aspect=fixed;imageAspect=0;image=https://cdn-icons-png.flaticon.com/512/5525/5525053.png;" vertex="1" parent="1">
          <mxGeometry x="-186" y="720" width="77" height="77" as="geometry" />
        </mxCell>
        <mxCell id="BgcQaN8wiSriz7WGM6qO-227" value="" style="shape=image;verticalLabelPosition=bottom;labelBackgroundColor=default;verticalAlign=top;aspect=fixed;imageAspect=0;image=https://cdn-icons-png.flaticon.com/512/5525/5525053.png;" vertex="1" parent="1">
          <mxGeometry x="-97" y="720" width="77" height="77" as="geometry" />
        </mxCell>
        <mxCell id="BgcQaN8wiSriz7WGM6qO-228" value="" style="shape=image;verticalLabelPosition=bottom;labelBackgroundColor=default;verticalAlign=top;aspect=fixed;imageAspect=0;image=https://cdn-icons-png.flaticon.com/512/5525/5525053.png;" vertex="1" parent="1">
          <mxGeometry x="-4" y="720" width="77" height="77" as="geometry" />
        </mxCell>
        <mxCell id="BgcQaN8wiSriz7WGM6qO-229" value="" style="shape=image;verticalLabelPosition=bottom;labelBackgroundColor=default;verticalAlign=top;aspect=fixed;imageAspect=0;image=https://cdn-icons-png.flaticon.com/512/5525/5525053.png;" vertex="1" parent="1">
          <mxGeometry x="91" y="720" width="77" height="77" as="geometry" />
        </mxCell>
        <mxCell id="BgcQaN8wiSriz7WGM6qO-230" value="" style="shape=image;verticalLabelPosition=bottom;labelBackgroundColor=default;verticalAlign=top;aspect=fixed;imageAspect=0;image=https://cdn-icons-png.flaticon.com/512/5525/5525053.png;" vertex="1" parent="1">
          <mxGeometry x="182" y="720" width="77" height="77" as="geometry" />
        </mxCell>
        <mxCell id="BgcQaN8wiSriz7WGM6qO-231" value="" style="shape=image;verticalLabelPosition=bottom;labelBackgroundColor=default;verticalAlign=top;aspect=fixed;imageAspect=0;image=https://cdn-icons-png.flaticon.com/512/5525/5525053.png;" vertex="1" parent="1">
          <mxGeometry x="267.5" y="720" width="77" height="77" as="geometry" />
        </mxCell>
        <mxCell id="BgcQaN8wiSriz7WGM6qO-232" value="" style="shape=image;verticalLabelPosition=bottom;labelBackgroundColor=default;verticalAlign=top;aspect=fixed;imageAspect=0;image=https://cdn-icons-png.flaticon.com/512/5525/5525053.png;" vertex="1" parent="1">
          <mxGeometry x="363" y="720" width="77" height="77" as="geometry" />
        </mxCell>
        <mxCell id="BgcQaN8wiSriz7WGM6qO-233" value="&lt;font style=&quot;font-size: 20px;&quot;&gt;Exposure Stimulus Sequence&lt;/font&gt;" style="text;html=1;strokeColor=none;fillColor=none;align=center;verticalAlign=middle;whiteSpace=wrap;rounded=0;fontSize=20;fontColor=#808080;" vertex="1" parent="1">
          <mxGeometry x="-276" y="808" width="458" height="30" as="geometry" />
        </mxCell>
        <mxCell id="BgcQaN8wiSriz7WGM6qO-234" value="&lt;font style=&quot;font-size: 20px;&quot;&gt;150ms silent intervals with fix cross&lt;/font&gt;" style="text;html=1;strokeColor=none;fillColor=none;align=center;verticalAlign=middle;whiteSpace=wrap;rounded=0;fontSize=20;fontColor=#1A1A1A;" vertex="1" parent="1">
          <mxGeometry x="-284" y="849" width="458" height="30" as="geometry" />
        </mxCell>
        <mxCell id="BgcQaN8wiSriz7WGM6qO-235" value="&lt;font style=&quot;font-size: 24px;&quot;&gt;Test Stimuli:&lt;/font&gt;" style="text;html=1;strokeColor=none;fillColor=none;align=center;verticalAlign=middle;whiteSpace=wrap;rounded=0;" vertex="1" parent="1">
          <mxGeometry x="656" y="829" width="221" height="30" as="geometry" />
        </mxCell>
        <mxCell id="BgcQaN8wiSriz7WGM6qO-236" value="" style="ellipse;whiteSpace=wrap;html=1;aspect=fixed;fontSize=20;fontColor=#1A1A1A;fillColor=#FF9933;" vertex="1" parent="1">
          <mxGeometry x="721" y="694" width="38" height="38" as="geometry" />
        </mxCell>
        <mxCell id="BgcQaN8wiSriz7WGM6qO-238" value="" style="ellipse;whiteSpace=wrap;html=1;aspect=fixed;fontSize=20;fontColor=#1A1A1A;fillColor=#99FFFF;" vertex="1" parent="1">
          <mxGeometry x="721" y="751" width="38" height="38" as="geometry" />
        </mxCell>
        <mxCell id="BgcQaN8wiSriz7WGM6qO-241" value="&lt;font style=&quot;font-size: 15px;&quot;&gt;Longer Duration&lt;/font&gt;" style="text;html=1;strokeColor=none;fillColor=none;align=center;verticalAlign=middle;whiteSpace=wrap;rounded=0;" vertex="1" parent="1">
          <mxGeometry x="725" y="698" width="221" height="30" as="geometry" />
        </mxCell>
        <mxCell id="BgcQaN8wiSriz7WGM6qO-242" value="&lt;font style=&quot;font-size: 15px;&quot;&gt;Shorter Duration&lt;/font&gt;" style="text;html=1;strokeColor=none;fillColor=none;align=center;verticalAlign=middle;whiteSpace=wrap;rounded=0;" vertex="1" parent="1">
          <mxGeometry x="725" y="755" width="221" height="30" as="geometry" />
        </mxCell>
        <mxCell id="BgcQaN8wiSriz7WGM6qO-244" value="&lt;font style=&quot;font-size: 24px;&quot;&gt;Response&lt;/font&gt;" style="text;html=1;strokeColor=none;fillColor=none;align=left;verticalAlign=middle;whiteSpace=wrap;rounded=0;" vertex="1" parent="1">
          <mxGeometry x="-276" y="921" width="221" height="30" as="geometry" />
        </mxCell>
        <mxCell id="BgcQaN8wiSriz7WGM6qO-245" value="&lt;font style=&quot;font-size: 24px;&quot;&gt;Study or Music&lt;/font&gt;" style="text;html=1;strokeColor=none;fillColor=none;align=center;verticalAlign=middle;whiteSpace=wrap;rounded=0;" vertex="1" parent="1">
          <mxGeometry x="671" y="903" width="221" height="30" as="geometry" />
        </mxCell>
        <mxCell id="BgcQaN8wiSriz7WGM6qO-246" value="&lt;font style=&quot;font-size: 24px;&quot;&gt;&lt;b&gt;Categorization Response&lt;/b&gt;&lt;/font&gt;" style="text;html=1;strokeColor=none;fillColor=none;align=center;verticalAlign=middle;whiteSpace=wrap;rounded=0;" vertex="1" parent="1">
          <mxGeometry x="671" y="1044" width="221" height="30" as="geometry" />
        </mxCell>
        <mxCell id="BgcQaN8wiSriz7WGM6qO-249" value="" style="shape=image;verticalLabelPosition=bottom;labelBackgroundColor=default;verticalAlign=top;aspect=fixed;imageAspect=0;image=https://www.pngitem.com/pimgs/m/92-922488_click-finger-select-finger-point-icon-png-transparent.png;" vertex="1" parent="1">
          <mxGeometry x="753" y="951" width="58" height="71.46" as="geometry" />
        </mxCell>
      </root>
    </mxGraphModel>
  </diagram>
</mxfile>
